<svg id="帝君袓_影像" data-name="帝君袓 影像" 
    xmlns="http://www.w3.org/2000/svg" viewBox="0 0 1200 1400">
    <defs>
        <style>.cls-1{opacity:1;}</style>
    </defs>
    <g class="cls-1">
        <path d="M628.24,1135.12a81.09,81.09,0,0,0-3.26,8.76c-1.62,6.36.54,10.57,6.29,13.63,9.19,4.88,18.52,2.92,27.78.59a61.34,61.34,0,0,0,27-14.71c13.85-12.93,27.47-26.22,40.16-40.27,17.33-19.19,38.22-26.71,63.34-21.75,15.15,3,30,7.36,45.1,10.72,18.29,4.07,36.79,7.36,55.09.46,31.75-12,30.36-44.64,12.15-62.74-7.16-7.12-16.91-6.95-25.92-5.15s-17.74,5.24-26.52,8.19c-9.87,3.33-18.61,8.6-26.91,15-10.1,7.78-20.26,15.8-33.53,17.91-8.88,1.42-14.47-2.24-16.78-11-5-19-8.74-38.27-9.69-57.85-1-19.89-6-38.8-11.67-57.59-7.91-26.13-21.88-49.21-37.46-71.38-11-15.67-22.86-30.82-32.76-47.17-14-23.14-22-48.43-21-75.94.47-14.16.8-28.33,1.64-42.47a39.31,39.31,0,0,1,3.18-12.39c6.15-14.91,12.66-29.66,18.89-44.54.5-1.21-.14-2.9-.25-4.36-1.13.75-2.26,1.5-3.38,2.26-6.46,4.43-12.86,8.94-19.37,13.27-4.29,2.85-8.74,5.46-13.13,8.16-2,1.21-3.87,2.86-6,3.45-13,3.52-21.28,12.46-28.07,23.32A26.38,26.38,0,0,1,611,694l-1.08-.77c3.08-4.18,5.8-8.69,9.31-12.45,5.81-6.23,12.8-10.67,20.57-14.59,11.66-5.87,22.35-13.65,33-21.55-1,.27-2.14.28-2.86.86-7,5.66-15.54,7.39-23.79,9.91-8.44,2.57-17.18,4.42-25.27,7.83A111.92,111.92,0,0,0,598,676c-10.43,7.72-19.92,16.69-30,24.9a31.72,31.72,0,0,1-10.4,5.32l41.22-34.8c-.17-.32-.35-.63-.53-1-4.59,1.27-9.11,3-13.78,3.71-8.35,1.31-16.78,2.41-25.22,2.9-8.77.5-17.58.16-26.37.26a5.27,5.27,0,0,0-2.64,1c-2.43,1.63-4.78,3.4-7.15,5.11A102.25,102.25,0,0,1,526,694.08c1,6,4.78,9.64,10,11.34s11,2.35,16.51,3.42c1.75.34,3.51.56,5.27.84,0,.53-.09,1.06-.13,1.59l-19.2-1.53c10.5,7.73,12.79,19.45,13.32,31.36.35,7.93,4.88,11.39,11,13.36,12.87,4.14,35.33,9.38,51.41,6.84-4.9,2.8-10.92,2.91-23.38.62-7.79-1.43-15.6-2.71-24.07-4.18l32.63,35.47-1.2,1.11c-4.59-4.87-9.15-9.76-13.76-14.61-9.15-9.63-17.23-20.39-29.09-27.14-8.35-4.75-16.33-10.29-25-14.27-14-6.39-24-17.2-33.94-28.17-1.1-1.21-1.62-3-2.41-4.45l-2.06,1.64c1,2.88,1.7,5.95,3.13,8.62,7,13,12.71,27.13,21.69,38.67,16.19,20.77,37,36.25,63.78,40.73,11.76,2,23.94,1.27,35.85,2.55,11.38,1.23,22.69,3.29,34,5.33,2.74.5,5.22,2.4,7.51,4l-33.69-7.57c-.26.56-.52,1.12-.77,1.68,8.83,9.4,17.51,19,26.54,28.18,14.6,14.88,29.41,29.56,38.27,48.91.67,1.46,1.3,2.94,2,4.4l-1.07.71c-1.49-2.17-3.28-4.19-4.41-6.53-8.45-17.43-22-30.78-35.17-44.49-7.83-8.17-15.82-16.22-23.19-24.79-4.85-5.65-10.15-9.21-17.78-9.14-6.16,0-12.33-.59-18.48-.53-19.84.23-36.23-8.32-51.93-19.38-19.21-13.53-31.55-32.26-41.11-53S478.77,683.91,469.67,663c-.17-.41-.54-.73-1.82-.94.38,3.14.31,6.41,1.2,9.39,3.41,11.46,7.46,22.73,10.64,34.25,4.93,17.8,9.22,35.78,14,53.63,9.49,35.55,33.21,58.15,66.54,71.25,22.59,8.88,45.52,17,68.49,24.83,26,8.91,47.65,23.49,63.35,46.33,3.11,4.52,6,9.16,9,13.76.43.65.68,1.4,1.65,3.44-6-8-10.92-14.9-16.07-21.64-15.83-20.75-37.06-33.46-61.46-41.69-21.9-7.39-44-14.48-65.37-23.12-17.12-6.9-33.79-15.47-46-30a115.92,115.92,0,0,1-23.5-46.42c-6.28-24.51-12.77-49-19.23-73.43a14.28,14.28,0,0,0-3.26-6.07q-1.76,14.7-3.52,29.39c-2.72,22.91.08,45.18,7.52,67,4.27,12.51,11.82,23.08,19.63,33.47,8.22,10.92,16.95,21.46,25,32.49,15.43,21.18,36.56,35.26,58.85,47.89,11.59,6.56,23.44,12.69,35.29,18.77,30.91,15.88,52.41,40.51,67,71.64a9.48,9.48,0,0,1,.92,5.43c-.93-1.61-1.94-3.17-2.79-4.82-7.79-15.17-16.72-29.51-28.42-42.1C630.2,917.3,608.5,906,586.38,895.43c-22.57-10.79-43.53-23.84-61.37-41.53a89.35,89.35,0,0,1-7.72-9.17c-9.65-12.55-19.07-25.27-28.84-37.73-23.24-29.64-30.06-63.58-26.6-100.26,1.06-11.26,2.33-22.51,3.42-33.78a14.87,14.87,0,0,0-.65-5.3c-5.65,10.37-11.25,20.7-12.45,32.67-1.69,16.73-3.89,33.44-4.63,50.22-.44,9.87,1.06,19.91,2.55,29.75,1.63,10.85,4.33,21.53,6.4,32.32,1.91,10,5.36,19.17,11.39,27.43,1.9,2.6,3,5.77,4.15,8.85-8.2-8.08-14-17.59-16.61-28.74-3.32-14.44-6.73-28.91-8.81-43.55-1.37-9.62-.91-19.58-.44-29.35.64-13,2.24-25.87,3.15-38.82.84-11.84,1.65-23.61,7.83-34.22a9,9,0,0,0,1.12-5.53c-2.17,3-4.84,5.68-6.4,8.94q-8.6,18-16.56,36.2c-12.51,28.78-15.23,59.26-13.91,90.06.43,10.07,3.93,20.21,7.21,29.91a196.29,196.29,0,0,0,22,44.68c10.75,16.43,26.9,25.67,44,33.3,11.17,5,23.13,8.22,34.79,12.08q21.78,7.23,43.65,14.19c10.77,3.4,21.9,5.86,32.39,10,15,5.84,25.87,16.44,32.71,32.52L620.34,970l.34-.72,10,4.52.84-.84c-2.23-2.94-4.16-6.18-6.73-8.77a67.09,67.09,0,0,0-30.33-17.55c-10.71-3-21.17-6.85-31.84-10-16.43-4.85-33.23-8.62-49.36-14.31-21.87-7.71-43.56-16.65-58.65-35.42a150.44,150.44,0,0,1-17.89-28.73c-8-16.59-17.27-33.26-17.73-52.12-.41-17.23,1.34-34.55,2.78-51.78,1.21-14.35,5.62-28,11.1-41.31a13,13,0,0,0,1-3.81c-6,6.4-11.77,12.89-13.81,21.74-3.33,14.42-6.54,28.88-10,43.27-1.84,7.7-4.08,15.32-6.15,23l-1.3-.14c.23-2.67.11-5.43.75-8,4.71-19,9.15-38.14,14.59-57,1.88-6.52,5.84-12.63,9.75-18.31,7.83-11.38,16-22.41,21.83-35.13,2.95-6.44,8.38-11.83,13.09-17.35,3.41-4,4.24-8.83,1.16-13.58-2.38,1.62-6.07,2.35-2.51,7.38-1.89-1.13-2.82-1.68-4-2.41-18.56,17.52-35.43,36.61-47.69,58.82-10.88,19.71-13.75,42.24-16.56,64.45-.77,6.13-3.13,12.12-3.37,18.23a67,67,0,0,0,1.95,19.77c6.83,25.4,14.83,50.48,26.47,74.14,4.6,9.36,10.88,17.9,16.39,26.81a11.6,11.6,0,0,1,1,1.74c8.27,20.62,22.3,37.09,37.21,53.16,10.16,11,18.74,23.39,28.35,34.9,4,4.78,8.83,8.87,13.77,13-4-12.59-1.51-23.81,7.55-32.49,13.75-13.18,30.3-20.67,49.9-19.86-4.53.86-9.09,1.62-13.59,2.62s-8.93,2.23-13.4,3.36c-.2.54-.4,1.08-.61,1.62l36.26,31c-1.49-.68-3.2-1.1-4.43-2.1-11.32-9.22-22.57-18.54-34.54-28.41l-14,9.51c7.71,8.69,14.13,17.28,22,24.29,5.16,4.61,12.34,7,18.65,10.26,4.16,2.18,8,4.46,13.12,5,7.28.74,13.25,5.38,13.76,13.07.86,12.88-1,25.44-11.77,34.47-4,3.37-8.73,5.91-13.05,8.94-9.21,6.47-19.57,10.28-30.1,13.71,10.61-6.14,21-12.58,32-18,13.08-6.47,19.25-17.12,21.4-31,2-12.85-6.34-21.52-19.24-19.66-6.92,1-13.9,1.73-20.7,3.26-18.94,4.27-35.46.58-48.31-14.57-9.14-10.77-17.53-22.18-26.55-33.05-8.35-10-17.1-19.77-25.67-29.64l-1.35,1A64.25,64.25,0,0,0,462,975.6c10.66,15.9,21.63,31.58,32.38,47.42,4,5.84,7.65,11.86,11.46,17.8l-1.16.75c-11.47-16.07-23.38-31.85-34.28-48.3a205.71,205.71,0,0,1-20.87-40.21A284.53,284.53,0,0,0,426,905.24a213.62,213.62,0,0,1-22.7-48.67c-.55-1.73-1.36-3.39-2.08-5.08s-1.46-3.28-2.19-4.93c1.09,14,1.33,27.77,2.16,41.49.83,13.54,3.09,26.8,10.56,38.61a84.79,84.79,0,0,1,4.14,8c7,14,13.13,28.52,25.26,39.2a12.71,12.71,0,0,1,1.33,2.25c-9-3.71-13.62-10.24-17.45-17.24-5.27-9.63-9.55-19.82-15-29.33-8.69-15.1-11.39-31.36-11.41-48.45,0-9.12-.69-18.26-1.46-27.35-1.12-13.28-2.93-26.41-7.72-39-1.61-4.23-1.4-9.16-2-13.78-.21-1.7-.25-3.43-.43-6-7.74,10.15-10.4,21-11.62,32.32-1.67,15.55-3.29,31.1-5,46.64-1.26,11.25-3.92,22.49-3.73,33.7.27,16.68,2.45,33.33,4,50,.21,2.35,1.16,4.63,1.77,6.94-.13-40.23,3.17-80.06,7.61-119.83a6.49,6.49,0,0,1,.93,4.28c-.9,10.78-2,21.54-2.76,32.33q-3.12,43.11-2.3,86.34c.21,10.6-.51,21.38,1.16,31.76,3.46,21.47,14.57,40,25.92,58a177.38,177.38,0,0,1,23.42,58.52c2.16,10.13,4.85,20.16,7.47,30.93l7.34-14,1.23.43c-5.46,8.35-6.55,17.08-5.57,27,1.43,14.57,15.1,25.86,25.72,27.82a127.3,127.3,0,0,0,37.27,1.64c21.14-2.35,40.33-9.23,55.1-25.18,10.52-11.35,20.54-23.2,30.41-35.12,6.49-7.84,11.78-16.41,14.59-26.49,2.73-9.75,5.41-19.75,10-28.66,4.41-8.53,11.28-15.8,17.06-23.63,14.08-5.06,27.83-12.24,43.56-6.81a29,29,0,0,0,4.19.82c-2.49-1.87-5.34-2.82-8-4.11-7.78-3.75-15.29-8.18-23.3-11.34-10.19-4-20.79-7-31.16-10.57-1.6-.55-3-1.78-4.42-2.7,10.54,3.51,21.23,6.63,31.57,10.64,9.09,3.52,17.77,8.1,26.69,12.08a103.94,103.94,0,0,0,13.37,5.27c9.08,2.61,13.15,10.21,17,17.46,3.19,6.08-.53,11.83-4.18,17a27.65,27.65,0,0,1,1.12-3.76c4.17-9.27,2.85-16.28-5.83-21.53-6.13-3.71-13.29-5.8-20.12-8.24-8.2-2.92-16,.43-24,1.88-16.18,3-25.15,14.14-31.31,27.91a212.27,212.27,0,0,0-10,28.69c-3,10.54-8.54,19.53-15.26,27.84-9.31,11.53-18.58,23.15-28.68,34-16.65,17.85-38.25,25.69-62.05,27.23-10.53.68-21.27-.26-31.79-1.51-14.9-1.77-25.6-12.54-29.15-27-6.08-24.72-12.46-49.37-18.86-74-.94-3.63-2.69-7-4.07-10.57l-1.71.14c-.3,6.83-1.22,13.71-.7,20.48.43,5.6-1,9.76-5.07,13.27-2.27,2-4.52,3.94-6.81,5.87-5.54,4.66-6.62,8.64-4,15,3.4,8.36,7.5,11.54,14.63,10.85a28,28,0,0,1,16.84,3.42c6.86,3.86,8.23,11.59,2,16.32-9,6.79-18.75,12.6-28,19.08-1.55,1.09-3.3,3.55-3.13,5.18.76,7.41.39,14.9,5.81,21.5,6.21,7.58.87,25.4-8.29,30.21-6.93,3.64-14.46,5.86-22.19,4.18-10-2.19-17.88,1.69-25.38,7.28-9.86,7.34-20.58,13.19-32.43,16.21-5,1.28-11.27,1.4-15.91-.5-7.5-3.09-15.1-3.38-22.8-4.27-6.1-.71-12.17-1.73-18.26-2.56-8.3-1.14-13.57-6.63-18.27-12.82-2.75-3.61-2.08-6.38,2.09-8.34,2.65-1.24,3.05-2.75,2.58-5.43-2.64-15-5.1-30-7.59-45a4.25,4.25,0,0,1,.31-1.45l13.49,14.36,1.86-1.12-1-13.15,1.46-1,12,12.75V1189l.92-.43,9.09,12.09c.58-3.55,1.08-6.61,1.77-10.85,4.54,5.21,8.17,9.4,11.92,13.71l2.54-3.44-3.21.32c-.32-.5-.63-1-1-1.49,5.59-4.72,11.17-9.46,16.79-14.15,2.3-1.91,5-3.41,7-5.61,4.27-4.79,9-8,15.72-8.63,4.34-.38,6.6-4,6.91-8,.48-6.29.19-12.63.46-18.93.13-3.25-1.39-4.6-4.33-4.67-6-.16-12-.57-18-.22-15.46.89-26.21-11.24-22.76-26.48,1.89-8.36,5.49-16.19,12-22,7.72-6.93,13.15-15.36,17.9-24.39a7.66,7.66,0,0,1,1.75-2.4c10.84-8.8,14.73-21.46,19.68-33.78a48.06,48.06,0,0,0,3.25-19.11c0-1.61,1.66-3.18,2.37-4.85,1.05-2.49,1.93-5,2.88-7.57l-1.16-.52c-.74,1.13-1.48,2.26-1.82,2.76-3.95-12.66-7.88-25.59-12-38.44-3.39-10.44-3.32-20.68,1.38-30.65a22,22,0,0,0,2.1-13c-1.83-13.08,1.88-25.09,8-36.47A26.18,26.18,0,0,0,347.27,867c-1.15-15,3-29.22,8.33-42.82,4-10.32,11.41-18.7,19.59-26.67,7.61-7.4,15.14-15.18,16.56-27.75,2-17.75,7.05-35.15,10.86-53L395,715.09c-2,3.15-3.84,6.67-6.23,9.78-8.52,11.09-17.27,22-25.81,33.07-1.76,2.28-2.8,5.11-4.55,7.39-1,1.32-2.76,2.83-4.24,2.91-4.84.23-9.57-.21-13.21-4.33-1.87-2.12-4.42-3.63-6.66-5.41-2.25,4.6-1.43,8,2.44,10.08,3.07,1.62,6.2,3.11,10.15,5.09-2.61,3.45-5.42,6.45-7.39,9.92-3.7,6.5-10.75,10.69-12.67,18.3a42.34,42.34,0,0,0-1,8.86c-.14,4.49.14,9,0,13.49-.13,3.76-1.23,6.49-4.68,9.4-8.13,6.88-15.44,14.83-22.51,22.84-5.05,5.73-4.63,6.09-8.62,6.4,0,3.69.11,7.46,0,11.21-.23,6.21-2.62,8.63-8.71,9.61a4.52,4.52,0,0,0-2.7,2.2c-11.76,21.62-23.7,43.14-35,65a199.46,199.46,0,0,0-20.22,59.25,12,12,0,0,0,0,2c4.56,1.88,6.72,5.32,8.38,9.83,1.1,3,4.33,5.2,6.6,7.76-9.09.36-7.53-8.72-11.12-13.26-5.84,5.61-4.9,11.88,1.68,14.92a4.71,4.71,0,0,1,2.1,3.28,10.2,10.2,0,0,1-.57,3.64c2.43,2.61,5.18,4.3,5.93,6.63,1.53,4.8,5.29,6.26,10,2.71-4.8-1.94-5.78-5.73-5.84-10.41,0-2.58-1.51-5.13-2.34-7.69,4.11.93,4.36,4.13,4.13,7.38-.32,4.45.92,7.49,5.4,9.49,5.27,2.35,7.93,6.86,8.23,13.26l-7-5.86c-1,2.56-1.54,4-1.63,4.22-2.28-.23-3.57-.39-4.87-.48-1.58-.11-3.18-.15-5.66-.26-4.46,5.17-5.94,5.53-12.09,1.57l5.26.78c1.51-4.24,3.26-8.65,4.56-13.2.3-1-.82-3.5-1.54-3.61-5.61-.83-5.15-4-3.6-8,.16-.41-.06-1,0-.44l-9.25-7.48-2.82,14.53c1.08-5.53-2-12.08,4.1-16.6,1.13-.83-.19-5-.39-7.61l-1.45.07c-.48,2.14-.53,4.54-1.61,6.32-.59,1-2.94,1.29-4.45,1.2-1.26-.08-2.41-1.32-3.7-1.79-1.64-.59-3.38-.91-5.08-1.35a48.63,48.63,0,0,1,4.34-3.42c.59-.38,1.61-.06,2.67-.06-.3-5.76,3.63-5,7.21-4.44C216.1,994.3,221.42,976.25,229,959c8.88-20.24,18.91-40,29-59.68,3.45-6.73,8.59-12.59,12.91-18.79-3.82-5.39-3.82-5.39.71-13.84-2.48-.5-5.62-.25-7.21-1.7s-1.43-4.56-2.14-7.32c-4.64.83-6.77,4.43-7.16,9.2a191.34,191.34,0,0,0-.95,19.43c.14,7-2.74,11.83-8.13,16.12-7.91,6.32-15.5,13.08-22.82,20.08-9.45,9-12.13,20.8-11.54,33.32.27,5.63-1.09,9.91-5.17,13.82-3.51,3.37-6.34,7.45-9.48,11.22l-2-1.77,6.44-10.73c5.68-1.35,7.71-4.36,7.63-10.94-.18-13.93,2.66-27,12.8-37.22a197.51,197.51,0,0,1,21.85-18.91c5.45-4.07,8.51-8.65,8.31-15.43a33.4,33.4,0,0,1,.21-7.49c1.51-7.58-.75-16.36,6.74-22.64-1.63-.23-3.08,0-3.88.79-4.59,4.74-6,10.58-5.44,17,.24,2.82.53,5.64.73,8.47.56,8-2.16,14.06-9.24,18.51a115.06,115.06,0,0,0-18.33,13.79c-4.3,4.11-8.39,9.22-10.48,14.69-3.36,8.78-4.94,18.23-7.36,27.37-1.07,4-2.36,8-3.56,12,1.31-7,2.47-14,4-21a156.61,156.61,0,0,1,4.11-15.4,43.71,43.71,0,0,1,18-23.75c4.45-2.91,8.45-6.5,12.87-9.49,5.8-3.92,8.46-9.2,7.92-16.14a52.35,52.35,0,0,0-.45-5.48c-1.67-9,.47-16.77,6.84-23.45.9-.94,1.64-3.16,1.14-4a6,6,0,0,0-4.1-2.85c-1.07,0-2.59,1.85-3.27,3.21a9.36,9.36,0,0,0-.48,4.41c.21,4.59-1.51,8.6-5.36,10.61-4.58,2.38-6.13,6.69-8.63,10.48-8.32,12.61-16.46,25.33-25.05,37.75-11.17,16.14-22.78,32-34,48.07C164.62,976,154.68,991,144.27,1005.69c-12.13,17.07-18,36.38-19.18,56.84-.59,10.29,2.38,20.76,3.42,31.17,2.5,24.81,14.08,45.85,27.07,66.35,1.82,2.87,3.72,5.69,4.71,9.13-1.61-2-3.3-4-4.82-6a167,167,0,0,1-26.08-53.64c-2.51-8.86-2.73-18.36-4-27.57-.51-3.62-1.73-7.24-1.65-10.84.19-8.08.38-16.25,1.74-24.18,1.31-7.65,3.18-15.47,6.45-22.44,4.28-9.12,9.89-17.68,15.43-26.14,11.77-18,23.68-35.84,35.9-53.49,7.3-10.53,14.75-21.05,23.12-30.72,12.11-14,20.76-30,29.65-46a32.21,32.21,0,0,0,3.92-14.58c.47-7.4,2.19-14.8,11.77-16.09.91-.13,1.73-1.75,2.4-2.8,1.42-2.23,2.69-4.57,4.08-6.83q6.75-11,13.56-21.85c1.4-2.24,2.78-4.51,4.39-6.59,3.83-5,7.7-9.89,11.73-14.69,4.7-5.61,10.79-5.66,15.48-.14,2.1,2.48,3.58,2.2,5.47-.24,5.87-7.54,11-16,18-22.25,19.72-17.54,32-41.31,50.89-59.44a7.08,7.08,0,0,0,1.64-4.91c-.33-8.23,2.91-15.18,7-22a18.59,18.59,0,0,0,2.76-7.75c.32-4.1,2.34-6.25,6-6.72,6.72-.84,11.93-4.48,17.43-8,3.8-2.45,8.59-3.37,12.94-5l.84,1.24c0-1.75-.11-3.5,0-5.24a69.71,69.71,0,0,1,.86-7.22c.16-.92,1.32-1.73,1.32-2.6,0-9.56.26-19.15-.35-28.68-.2-3.16-2.66-6.17-4.08-9.24l-1.21.58c1.49-8.86,4.13-17.71,4.19-26.58.08-12.5,4.75-22.72,12.35-31.82,3.32-4,8.06-6.77,12.54-10.42-8.95-8.3-8.14-17.89-4.91-27.9.43-1.34,0-2.94.08-4.42.17-3.7.41-7.4.65-11.58a18.21,18.21,0,0,0-3.46.8c-4.3,1.81-8.41,4.17-12.84,5.51-3.17,1-7.06,1.65-10.05.68-9.74-3.16-19.17-7.24-28.8-10.71a18.91,18.91,0,0,0-7.31-.83c-9.61.58-19.2,1.43-28.81,2.12-10.93.8-21.86,2-32.8,2.16-7.07.13-14.17-1.16-21.25-1.86-2.66-.26-5.3-.64-7.94-1-14.83-1.78-22.31-12.15-25.51-24.85-3.14-12.49,1.87-24.15,12-31.95a86.51,86.51,0,0,1,24.92-13.3c8-2.67,11.86-7.86,14.09-14.73,2.45-7.53,3.57-15.49,5.6-23.18,2.1-8,4-16.15,7.06-23.83,4.25-10.75,17.88-12,24.32-2.18a36.6,36.6,0,0,0,19.38,14.88c2.21.77,4.7.72,6.75,1-.94-7.4-1.89-14.07-2.61-20.77-.85-7.8,2.12-14.16,7.3-19.94,10.32-11.51,20.9-22.86,30.33-35.08,9.24-12,11.71-27,15.44-41.3.94-3.6-.41-5.92-4.07-6.51-7.82-1.26-15.64-3.09-23.51-3.34-10.29-.32-20.76-.22-30.9,1.37-8.5,1.33-17.38,2.25-24.68,8.75-3.4,3-9.52,4.35-14.33,4.18-10-.34-18,2.27-24,12.08-.37-2.27-1-3.61-.69-4.59,2.84-7.95,6.19-15.66,14.88-18.95,4.36-1.66,7.35-3.94,8.32-8.94.39-2,2.78-3.92,4.65-5.38.64-.5,3.26.12,3.62.88,2.65,5.55,7.51,5.62,12.05,4.33,13.92-3.94,28.11-5.21,42.46-5.71,18.48-.64,35.24,6.24,52.32,11.7a10.39,10.39,0,0,1,5,4c8.66,13.06,17,26.28,20.94,41.74a54.79,54.79,0,0,1-.9,31c-1.61,5-2.52,10.3-3.8,15.45a8.43,8.43,0,0,1-1.23,3.21C466.36,335.45,467,338.9,471,343c1.48,1.56,1.51,4.61,1.94,7,1.46,8.34,2.58,9.43,11,10.93,6.24,1.1,11.73,1.15,17.7-2.79,7.1-4.68,15.55-7.3,24-11.05v-4.56c-6.53,2.75-12.8,6.1-19.48,8-4.82,1.35-10.19.92-15.32.94-3.93,0-10.55-7.21-11.07-12.65a28.23,28.23,0,0,1,1.11-11.69c6.82-19.21,8.18-38.4,1-57.8a10.67,10.67,0,0,0-1.38-3.19c-13.75-16.41-26.08-34.45-48.68-40.32-9.16-2.38-17.91-6.81-27.17-8.19-9.56-1.43-19.53-.63-29.28-.15-7.92.39-15.79,1.73-23.74,2.66.31,2.13.68,4.67,1,7.09l-8.9-13.66a105.66,105.66,0,0,1,44.9-2.3c15.13,2.47,29.87,7.34,44.92,11.2.86-7.09-4-11.65-8.74-16-4-3.66-8.5-6.71-12.88-10.1l4-4.27c3.24,6.21,4.08,6.42,14.62,4.05q-2.73-10.94-5.47-21.93c6,3.58,14.62,2.93,15.41,12.46-.89-9.05-2.34-17.54,2.89-24.91,4.76-6.72,10.16-13,15.28-19.45l2,1.21c-2.82,5.91-5.79,11.75-8.4,17.75a28.73,28.73,0,0,0-2.47,8.92c-.11,1.39,1.79,3,2.85,4.4.84,1.16,2.36,2.18,2.49,3.38.1.91-1.37,2.19-2.4,3a48.26,48.26,0,0,1-5.07,2.94c2.06,1.69,3.7,2.81,5.07,4.19,3,3,4,7.24,2,10.59-3.51,5.77-1.59,10.9.34,16.16s1.19,10.51.39,15.92a8.58,8.58,0,0,1-1.06-.31c1.07-8.29-2.19-15.85-3.8-23.72-.5-2.41.6-5.42,1.7-7.83,1.77-3.9,1.32-7.1-1.81-9.89-6.08-5.39-5.78-7,1.94-10.14.59-.24,1.15-.56,1.69-.83-.13-.5-.14-1-.3-1.07-6.67-2.18-8.6-7.76-5-14.71,1.44-2.75,3.11-5.38,5.13-8.85a25.42,25.42,0,0,0-12,23.64,49.59,49.59,0,0,1,.63,6.94c-.08,1.44-1.09,2.84-1.67,4.25-1.26-1.06-3-1.88-3.67-3.23-2.67-5.26-2.55-5.32-8-6.13a18,18,0,0,0,4,15.85c7.77,8.94,12.82,18.59,10.45,30.93-.16.83,1,2.46,1.94,2.87,9,4,15.47,10.81,21.43,18.32a58.28,58.28,0,0,0,6.59,7.5C485,264.46,487.44,278,487.84,292c.25,9-.95,18.06-1.53,27.59.6-.1,2.11-.39,3.63-.65,7.78-1.32,15.4-2.68,21.37,4.85,2.7,3.41,6.12,1.7,7.81-1.31,3.56-6.38,7.79-12,13.9-16.09a4.44,4.44,0,0,0,1.48-2.9c1.72-14.17,3.33-28.35,5.06-42.53.15-1.21,1.26-2.31,1.36-3.51.37-4.38,1.32-8.67-3-12.28s-3-8.71-1.32-13.52l3.46,8.81,1.51-.54q-1.92-5.31-3.83-10.6l1.33-.83,2.48,3.84c1.08-2.62,1.93-4.67,2.77-6.73v6.68c3.59-1.23,6.64-3.11,9.71-3.12,3.27,0,6.54,1.71,9.81,2.67,3-7.15,2.1-15.69,7-22l1.3.46L566.56,233l1.38,1.33c3.43-1.3,7.18-2.1,10.23-4,12.47-7.79,25.34-11.55,40.22-6L606,211.2l1.24-1.18c3.83,3.76,8,7.27,11.43,11.35,6.39,7.53,12.45,15.35,18.51,23.15,2.31,3,4.11,2.14,5.84-.33,3.45-4.92,3.21-10.11.3-15.05-1.81-3.08-4.32-5.74-6.58-8.67,9.41,3.53,12.87,14.19,9,27,1.53-.17,3.49-.59,3.88-1.6,1.52-4,3.18-8.08,3.56-12.25s-.64-8.69-1-13c3.72-1.59,4.35-4.29,4.31-8.27-.08-9.64.69-19.29,1.13-28.93.23-5-1.54-9.75-5.6-12.18-6.43-3.86-13.29-8-20.47-9.38-10-1.87-20.56-1.37-30.88-1.65-9.39-.25-13.6,2.87-16.52,10.66,3.74,2.93,7.54,5.19,10.39,8.31,4.64,5.09,9.37,9,16.88,8.85a36.5,36.5,0,0,1,13.18,2.38c4.45,1.68,8.43,4.63,12.52,7,.49-5.28,1-10.74,1.52-16.21l1.23.14c0,4.37-.27,8.76.09,13.1a23.8,23.8,0,0,0,2.23,8.75c3.1,6,6.73,11.75,10.15,17.6-1.18-1.26-2.85-2.31-3.48-3.81-5.65-13.5-16.17-20-30.27-21.74-16.69-2-33.21-.26-49.75,1.8-5.8.72-9.92,3.92-12.83,8.54-4.17,6.6-7.86,13.49-11.76,20.25a47.93,47.93,0,0,1,15.74-27.61c.25-.22.51-.54.8-.58,11.74-1.8,10-13.71,16.17-20.14-7.07-1.83-10.81-.43-14,4.69-.52.83-1.2,2.13-1.88,2.19-4.72.36-6.29,4-8.48,7.3-3.29,5-6.28,5.45-11.36,2.47l-16.94-9.93,6-1.8c-2.1-1.59-4.71-2.86-6.25-4.92s-2.12-5-3.4-8.28l13.84,13.44-2,3.37,16.7,2.52-4.42,2.26,1.46,1.84,7.74-5.32c-.3-.5-.61-1-.91-1.48l-1.9.88L562,170.85l-13.56-13.49-12.29,11.47a89.75,89.75,0,0,1,3.19,10.32c1.33,6.51,6.51,3.43,10.31,3.84l-.27,1.48c-3.49-.17-7.59.7-10.3-.84-2.25-1.29-2.91-5.41-4.22-8.3-.36-.82-.24-2-.81-2.55-6.46-6.06-6.49-6-6.65-13.39l9.82-7.7.83,1.53c.15,1.91.31,3.81.52,6.36,4-2.23,8.55-3.29,10.18-6.07,1.79-3,.88-7.68,1.68-11.65,3.3,3.89,3.07,8.49,1.89,12.76-1.07,3.9.37,5.86,3.26,7.81,3.54,2.4,6.89,5.1,10.41,7.55a11.39,11.39,0,0,0,3.91,1.8c5.51,1.22,10.06.93,13.11-5.28,3.23-6.56,9.69-8.81,16.72-8.72,10.81.15,21.7-.11,32.4,1.15,12.32,1.44,21.69,8.58,26.88,19.8,1.78,3.84.78,9.1.63,13.69-.25,7.62-.84,15.23-1.34,23.68,5.26-2.06,9.78-1.21,12.41,3.34a13.29,13.29,0,0,1,1.62,8.25,111.57,111.57,0,0,1-4.52,16.69c-.94,2.75-2.87,5.16-4.37,7.76,14.91,17.6,13.26,27.55,1.59,42.29a91.19,91.19,0,0,0,9.47.88c4.65,0,9.3-.48,14-.75,8.44-.48,11,1,14.81,8.72a17.44,17.44,0,0,0,1.73,2.41c.4,1.48.79,2.95,1.28,4.84-2.26-.32-4.39-1.27-5.16-.62-4.9,4.15-9.5,8.64-14.78,13.56,13.37.18,25.75.83,37,9.24,2-18.06,14.44-25.32,28.31-31.49-6.79-.4-13.54.53-19.92-.62-9.9-1.77-18.68-.39-26.9,5.24a29.64,29.64,0,0,1,18.24-8.28,7.44,7.44,0,0,0,4.3-1.8A502.33,502.33,0,0,0,771,246.53c11.5-15,25.16-28.32,37.73-42.51q16.54-18.66,32.72-37.64c2.85-3.35,4.61-7.61,7.35-11.07,1.8-2.27,4.64-3.69,6.67-5.82,1.36-1.41,3-3.38,3-5.11.07-11,6.34-18.15,14.17-24.5-5.24,6.31-11.34,12.15-11.8,20.21,11.48-13.14,23.09-26.84,35.71-39.67-8.11,9.76-16.2,19.54-24.37,29.26-2.86,3.4-5.9,6.65-8.87,10l.79,1.17c5.34-1.44,9.22.36,11.66,5.18l5.06-2.66-4.21,6,.93.87c3.79-3.23,8.13-5.52,10.66-10.57,2.09-4.16,5.55-7.68,8.68-11.23,2.51-2.85,5.45-5.32,8.2-7.95l.28.25c-2.52,2.83-5.14,5.56-7.52,8.5-2.67,3.3-5.09,6.81-7.68,10.18-2.15,2.82-4,6-6.66,8.3-7.23,6.43-14.28,12.85-19.07,21.52a74.28,74.28,0,0,1-9.2,12.36c-12,13.83-24.28,27.38-36.15,41.3-17.26,20.23-34.25,40.68-51.34,61-3.83,4.56-7.6,9.16-11.9,14.35l8.61,1.08c-9.35,3.76-18,8.14-25.16,15.18l6.14-7.84A29,29,0,0,0,728.6,321.6a8.48,8.48,0,0,0,4.83-1.51c2.17-1.73,4-3.83,6-5.77L733,323.17c14,3.72,28-.51,41.72.82-9.16,3.16-20.73-.48-27.51,9.92,16,4.63,31.84,9.29,44,22.43v-13l1.12-.07c.26,4.1.41,8.21.8,12.29.22,2.27.35,4.77,1.4,6.68,3.29,6,4.66,5.79,11.07,3.64,7.15-2.4,14.68-3.68,22-5.45-9.42,3.59-18.81,7.23-28.25,10.74-7.79,2.9-15.48,6.25-23.5,8.29-9.71,2.47-18-1.21-25-8.34,7.08,4.42,14.84,6.94,23,5.43,7.93-1.47,15.59-4.4,22.7-6.5-2-3.61-3.37-6.3-5-8.76-2.3-3.41-4.27-7.39-7.39-9.81-9.47-7.32-20.71-10.91-32.07-14.38-7.16-2.19-12.51-.36-18,4.45-2.73-1.64-5.73-3.12-8.37-5.08-11.71-8.67-25.09-11.11-39.21-10.56a12.19,12.19,0,0,0-6.8,2.57c-8,6.61-16.5,8-26,3.37a4.43,4.43,0,0,0-3.91.29,161.17,161.17,0,0,0-13.22,11.39,9.45,9.45,0,0,0-2.4,6.05c-.2,19.66-.39,39.32-.07,59,.11,6.7,1.67,13.38,2.6,20.38l9.09-1.66c-.8-1.71-1.59-3.16-2.16-4.68-3.67-9.83-5.17-19.73.09-29.45,1.07-2,3.33-3.31,5-4.94-1.12,3.17-3.44,5.29-4.51,7.91-3.9,9.62-2.28,19,2.5,27.86a6.13,6.13,0,0,0,4.44,2.55,107.55,107.55,0,0,0,11.11-.52c2.07-9.44,4-18.27,5.94-27.11.45,2.79-.18,5.34-.61,7.93-.85,5.05-1.66,10.11-2.35,15.18-.39,2.85.81,4.6,3.76,5.5,7,2.12,13.87,4.52,22.17,7.27.37-11.94.9-23.37.93-34.8,0-2.56-1-5.9-2.81-7.56-7-6.54-14.54-12.56-21.91-18.74a35.64,35.64,0,0,0-3.22-2.18,4.73,4.73,0,0,1,4.17.17c13.05,7.88,24.57,17.18,29.8,32.3,2.39,6.93,4.9,13.81,7.42,20.68a14,14,0,0,0,1.52,2.57c0-12.34-.24-24.82.08-37.28a43.17,43.17,0,0,0-6.43-24.23,39.94,39.94,0,0,1-1.83-3.85c6.64,6.08,9.7,13.77,10.13,22.24.65,12.8.84,25.62,1,38.43.13,14.78,1.37,14.56,16,16.88,1,.15,2,0,3,0,1.6.14,3.19.37,5.3.63,2.65-4,6.6-5.34,9.94-3.24,2.56-1.57,4.87-3.73,5.59-3.29,3,1.83,5.59.6,8.36,0,2.58,4.25,4.58,9.45,11.31,6.94-2.07-5.18-5.84-7.52-11.41-6.84.28-1.13,1.2-2.79.76-3.32-4.27-5.12-15.72-7.18-21.26-3.51-4,2.64-7.43,6.12-11,9.14a20.18,20.18,0,0,1,23.75-12.44,5.6,5.6,0,0,0,4.58-1.09c15.47-16.34,33.54-26,56.82-23.05a9,9,0,0,0,3.87-.3c4.66-1.56,9.17-3.63,13.9-4.91,12.06-3.27,22.76,2.74,34,5.37a7.4,7.4,0,0,1-4.65.37c-4.05-.94-8.11-1.88-12.08-3.1-9.42-2.91-18.2-.78-28.24,3,5.34,1.67,9.43,2.82,13.42,4.25,1.64.59,3.71,1.46,4.41,2.81.92,1.76.68,4.12.94,6.23-1.78-.95-4.33-1.44-5.21-2.92A14.53,14.53,0,0,0,822,403.27c-19-4-37.14-2.91-53.07,9.81-4.7,3.76-9.31,7.64-15.07,12.37,4.5,1.8,7.43,3.88,10.41,4,4.06.1,8.19-1.2,12.25-2.11a82,82,0,0,1,60.74,9.45c20.16,11.8,41.45,15.75,64.14,15,11.08-.36,18.22-7.56,16.77-18.46-1.22-9.09-4.38-18-7.2-26.78s-7.45-11.56-16.82-11.94c-5.79-.23-11.88-.18-17.26-2a31.76,31.76,0,0,0-18.33-.79c-3.37-2.44-6-3.75-7.81-5.83-1.93-2.27-3-5.25-4.75-8.37l9.26,1.34h-.09l5.55,3.27c-2-12-9-19.45-19.85-21.19-4.37-.7-8.9-.37-13.36-.51,5.61-.19,11.32-1.13,16.8-.38,9.41,1.29,18.06,12.26,18.73,22.49.12,1.81,0,3.63,0,6,10.91,1.26,21.53,2.8,32.2,3.63,9.61.75,14.56,3.92,18,13,.36.93.75,1.86,1,2.82,1.9,6.74,3.32,13.48,11.41,16.25,4.66,1.6,5.94,6.44,6.36,11.11.27,3,1.25,4.71,4.78,5,7.72.58,11.81,5.76,14.67,12.44,6,14,9.34,28.69,11.55,43.7,1.34,9.07,5.23,17,12.26,22.8a35.8,35.8,0,0,0,12.14,6.19c11.69,3.57,22.13,8.54,29.75,18.77a221.38,221.38,0,0,0,20.44,23.77,19.34,19.34,0,0,0,11.87,5.18c24.45,1,35,33.2,24.42,48.58-4.53,6.56-7.77,14.11-12.81,20.2-10.13,12.25-21.54,23-39.39,21.38a24.56,24.56,0,0,1-3.32-.78c10.2.55,19-2.57,27.46-8.51,14-9.81,22-23.84,29.07-38.6,4.31-9-1.22-28.61-9.33-34.24-3.56-2.47-8.07-4.94-12.17-5-8.6-.07-17.25,2.4-25.82,2.12-10.61-.34-19.23-4.81-24.38-15.32-5.42-11-15-18.58-27-20.23-10.84-1.5-22.14-.28-33.18.52-5.17.38-10.22,2.59-15.32,4,4.89.48,9.49-.18,14.12-.47,14.69-.9,28.17,3.76,41.56,9.11,18.34,7.31,29,26,25.14,45.41-4.36,21.62-18,36.28-36.62,46.77-2.89,1.62-6.74,1.54-10.15,2.24,21.06-10,27.7-14.62,38.09-30.93,13.43-21.1,10.47-45.4-11-58.6-15.22-9.37-32.75-14.08-51.19-12-7,.78-13.93,2.24-20.89,3.39a2.9,2.9,0,0,0,2.46,1.48c19.8.57,36.22,8.64,50.54,22,12.41,11.58,16.35,25.5,12.76,41.72-.71,3.22-2.8,6.14-4.25,9.21,6.46-15.1,5.94-29.67-3.85-42.7C966,572.66,955,563.31,941,559.84c-13.3-3.31-27.11-4.83-40.78-6.32-8.76-.95-17.6-.77-25.26-6,12,5,24.65,4.55,37.2,4.08,4.31-.16,8.66-1.81,12.78-3.35,2.91-1.08,5.28-4,8.2-4.57A245,245,0,0,1,958.75,540c21.42-1.91,38,5.56,48.53,25.19,2,3.74,6.24,7.1,10.23,8.83,10.19,4.39,21,4,31.9,1.6-11,.39-16.51-7.85-22.84-14.46a87.41,87.41,0,0,1-10-13.09C1009.12,536.5,998,531,985.14,527.82a24.27,24.27,0,0,1-9.66-4.77A40.73,40.73,0,0,1,961.27,498c-1-5.88-2-11.74-3-17.61-1.44,17.31-17.74,32.11-28.78,33.66-17.56,2.48-35.19,2-52-5.39-10.56-4.68-17.6-13.49-25.68-21.13-15.66-14.8-32.35-28.29-51.78-37.92-4.1-2-8.74-2.95-13.13-4.37,22.69,22,35.9,50,53.21,75.09-1.49-1.48-3.33-2.75-4.43-4.48C823.25,496,810.85,476,795.5,458.19a59.37,59.37,0,0,0-12.25-10.79c-2.52-1.65-6.31-1.35-9.52-1.94-.21.63-.41,1.26-.61,1.88l7.55,5.81c-3-.06-5.2-4.34-7.68-1.15,2.12,3.12,4.12,5.55,5.52,8.28a24.16,24.16,0,0,1,2.14,7.12c.9,5.44,3.55,10.36,4.11,16,.39,3.93-.41,9.06,4.48,10.47-.26,1.48-1,3-.6,3.92,2.29,4.78,4.31,9.86,7.52,14,7.25,9.31,15.2,18.08,22.76,27.16,8.47,10.17,19.94,13.12,32.43,13.73-4.73.35-9.54,1.43-14.16.88-8.31-1-14.72-6-20.07-12.12s-9.87-12.6-15.3-18.44c-6.88-7.39-13.17-15-16.23-24.83a5.76,5.76,0,0,0-4.11-3.16c-5.46-.52-11-.49-16.46-.55-.5,0-1,.91-1.5,1.39l-9.14-3.32c.37,4.27.47,6.92.84,9.53,1.93,13.62,3.89,27.13,11.74,39.12,4.19,6.39,6.89,13.76,10.26,20.68l-.88.44-14.05-25.86a11.28,11.28,0,0,0-1.49,5.86c-.13,16.58,3.89,32.22,10.79,47.2,2.22,4.81,4.48,9.61,6.73,14.42a23,23,0,0,1-2.64-2.87,102.06,102.06,0,0,1-16.83-59.4,50.92,50.92,0,0,0-.38-8.91c-2-12.3-4.19-24.54-6.09-36.84-.7-4.52-2.93-6.78-7.66-7-1.56-.08-4.1-.25-4.5-1.13-2.65-5.95-7.42-4.3-12.34-4-1.64,10.94-2.68,21.72,1.13,32.39-1.29-5.82-3.15-11.59-3.71-17.48-.51-5.36.39-10.85.66-16.13-1.34.44-2.65,1.35-3.75,1.14-4-.73-6.77,1.2-9.7,3.41-5.84,4.4-10.42,3.05-13.3-3.72-.64-1.5-1.05-3.09-1.68-5l-4.14,1.14,10.79,15.06c-6.46-4.17-8-13.6-16.43-15.27L686.19,481l5,4c-1.28-.64-2.54-1.31-3.83-1.92-2.41-1.14-6.3,1-6.73,3.69l-7.81-.52c3.86,2.64,6.43,4.45,9.05,6.17,10,6.59,17.15,16,24.26,25.39,2.74,7.31,6,14.47,8.07,22,2.13,7.8,3.09,15.91,4.56,23.89-3.39-10.7-5.57-21.63-9-32.18-4.13-12.86-11.29-23.12-17.91-27.51,2.56,3.92,4.65,7.51,7.11,10.82,5.67,7.62,10,16,11,25.37,1.76,17,2.92,34.1,4,51.18.39,6.18,2.29,13.1-5.23,16.9,7.69,7.76,8.62,10.34,5.63,14.67-.14-9-6.25-15-13.39-13-5.53,1.5-10.46,7.9-10.91,14.18-.31,4.28,3.59,11.26,7.21,12.9,4.67,2.12,13.12.8,16.54-3.6,5.08-6.54,11.49-9.72,20.28-9.89-2-2.71-3.67-4.88-5.62-7.47-5,4.58-9.91,8.84-14.6,13.29-4.13,3.91-11.06,3.57-13.71-1.31-.91-1.67-.55-4.56.27-6.44.57-1.32,2.9-1.86,4.45-2.75.21.39.43.77.65,1.16-2.08,2.18-6.62,3.53-3,7.7,2.54,3,6.8,2.93,9.78.41,8.9-7.5,17.81-15,26.83-22.35,5.88-4.79,12-9.33,17.09-13.3-6.8-17-13.33-33.36-19.81-49.71a13,13,0,0,1-.4-3c.75,1.47,1.59,2.9,2.23,4.41,5.23,12.38,10.38,24.78,15.65,37.14,1,2.42,1.92,5.58,3.87,6.83,7.52,4.81,11.71,12.38,17.21,18.88,1,1.2,3.46,1.2,5.25,1.75,1.51,3,3.58,5.75,4.4,8.89,1.63,6.21,5.52,10.46,10.3,14.28,10.13,8.09,20,16.46,30.35,24.34,6.54,5,13.24,10,20.53,13.73,8.62,4.38,18,7.2,28,4.78,15.49-3.78,31-7.56,46.35-11.82,10.48-2.9,20.9-5.55,31.89-5,13.28.7,26.58,1.25,39.86,2.14,8.92.61,17.81,1.71,26.71,2.59q-33.15-1.61-66.31-3.24c-11.51-.59-22.36,2.24-33.31,5.41-15,4.33-30.16,8.3-45.45,11.38-5.77,1.17-12.14-.44-18.21-1-2.24-.22-4.42-1.16-6.74-1.81-.52,4.41-1.47,8.37-1.34,12.3.32,9.67-3.77,17.47-9.76,24.45-6.66,7.76-6.53,16.86-6.36,27.3,3.48-5.64,6.34-10.24,9.16-14.86,2.56-4.17,5.94-6.47,11.15-5.91s7.72,3.75,9.2,8c2.22,6.42,2.74,13,.26,19.55a57.1,57.1,0,0,0-1.92,5.66c-2,7.92-7.85,9.91-14.83,5,.23-.22.44-.58.69-.61,3.33-.43,8.44.39,9.66-1.42a41.53,41.53,0,0,0,5.72-15.13c.72-3.75-.32-7.93-1-11.83-.77-4.2-3.67-6.55-7.86-7.31a8.24,8.24,0,0,0-9.28,4.3c-4.18,7.17-8.27,14.39-13.07,22.77-1.16-2-2.57-3.36-2.76-4.88-1.4-11.32-2.37-22.67,5-32.67,8.23-11.23,9.49-23.92,7.6-37.13-.31-2.13-2.63-4-4-5.94l-1.51.45c-.73,3.12-1.29,6.3-2.24,9.36-1.76,5.7-2.75,12-5.85,16.86-5.29,8.34-6.27,16.85-5.09,26.23.8,6.43.7,13,1.17,19.43a37.51,37.51,0,0,0,1.35,5.66l-2.09.78c-2.53-2.11-5-5.43-6.35-5-2.29.68-4.62,3.4-5.63,5.82-3.36,8.07.52,15.32,3.85,22.34,1.5,3.14,5.12,3,7.38.27,1.32-1.61,2.31-3.48,4-6.12-5.23,1.32-10.06,4.06-12.71-1.71-1.82-4-1.6-8.2,1.78-11.57,3.81-3.8,7.83-2.12,11.9.24-.81,0-1.63.15-2.45.14s-1.65-.22-2.48-.24c-5.63-.16-9,4.59-6.74,9.76.51,1.17,2.52,2.89,3,2.64a43,43,0,0,0,8.66-5.1c1.68-1.3,2.71-3.43,4-5.2l1.38.79c-.41,3.78-.51,7.61-1.27,11.31-2.31,11.27,3.43,19.95,8.9,28.74.88,1.42,1.93,2.72,2.83,4.12,5.77,8.9,16.09,11.75,25.77,7a6.15,6.15,0,0,0,2.57-2.21c5.05-8.69,10-17.45,14.73-27-2.53,2-5.32,3.84-7.53,6.18a57.37,57.37,0,0,0-6.58,8.75c-4.26,6.78-10.82,7-17.64,6.52a11.57,11.57,0,0,1-9.37-5.75c-6.76-10.61-6-22.19-5.82-33.75l1.28-.16.84,16.2c.35,6.49,4.18,11.4,10.68,11.41a54.94,54.94,0,0,0,16.85-3.11c8.18-2.68,16-6.49,24.11-9.35,6-2.1,11.81-1.39,17,2.79a5,5,0,0,0,3.47,1.3c5.88-1.13,10.66,1.43,14.66,4.92,10.8,9.42,19,20.6,20.66,35.39.42,3.73,2,4.82,5.7,5.84,4.72,1.3,9,4.46,13.18,7.31,1.72,1.17,2.58,3.6,3.83,5.46l2-1.66c-1.78-4.36-2.75-9.33-5.49-13q-17-22.69-35.1-44.62c-3.19-3.85-8-6.53-12.35-9.23-13.89-8.55-24.79-7.63-38.17,2.86-8.58,6.72-21.78,8.06-30.59,3.15-5.84-3.26-8.09-8.38-7.49-15a24.26,24.26,0,0,1,1.32,3.53c1.55,7.3,6.92,10.61,13.47,11.56a30.61,30.61,0,0,0,22.26-5.44c5.82-4,10.29-7.51,12-15.74,2.55-12.33,12-21.05,22.57-27.94-2.54,2.58-5.13,5.1-7.59,7.75-7.42,8-14.32,16.28-14.4,28.5l4.12-1.43-1.49-1c1.92-4.43,3.15-9.36,5.88-13.21,10.52-14.82,25.12-19.85,42.85-16.77,8.17,1.43,16.06,2.92,20.63,11.09a61.59,61.59,0,0,1,7.29,40.42c-.77,5.15-.12,10.51-.12,15.77,4.8-6,9.77-9.39,18.08-8-1.43-7.19-1.85-14.16-4.27-20.34-4.4-11.24-10.08-22-15-33A17.62,17.62,0,0,0,956,720.48c-3.1-.62-6.12-1.69-9.23-2.12-5.86-.81-11.84-2.19-17.63-1.66-5.37.49-10.55,3.14-15.81,4.84,7.22-7.22,16.24-8.58,25.73-7.18A81.16,81.16,0,0,1,957.87,719c4.22,1.73,8.79,4.87,11,8.66,6,10.12,11.75,20.59,15.77,31.58,3.42,9.37,4.25,19.67,6.28,29.55,1,4.85,2.16,9.68,3.28,14.68,3.82-3.86,6.65-8.6,10.73-10.28s9.2-.1,14.13,0c-3.07-3.34-6-7.86-10.13-10.81-11.93-8.61-15.19-21.16-17.69-34.53-2.46-13.15-6.32-25.83-16.2-35.79C969,706,962.2,702,953.3,701.4c-13.61-.82-26.57,1.88-39.08,6.71-8.14,3.13-13.9,8.68-17.66,17.19-3.1,7-8.76,12.87-13.52,19.06s-9.49,12.22-7.46,21.81c-3.13-4.46-2.72-10.76.55-16.07,1.92-3.11,4.35-5.89,6.44-8.9,4.8-7,9.53-14,14.3-21a36,36,0,0,1,17.24-13.89,104.43,104.43,0,0,1,34.64-6.66c16.43-.41,27.8,8,34.94,21.59,4.58,8.67,7.17,18.57,9.46,28.21,2.9,12.23,6.27,23.62,17.12,31.66,4.7,3.48,8.07,8.8,11.83,13.46,1.1,1.36,1.48,3.32,1.65,5.8-5.73-5.88-12.67-8.3-19.48-4.95s-8.52,10.43-7.28,19.08c-1.59-1.49-2.57-2-2.76-2.66-1.91-6.89-4.15-13.73-5.32-20.75-.77-4.57-3.18-5.12-6.53-4.35-6.93,1.6-10.11,7.91-7.84,14.72a16.19,16.19,0,0,1,.81,6.71c-6.65-9.59-9.53-20.09-7.47-31.55,2.45-13.61,1-26.54-6-38.61-2.39-4.12-5.48-7.42-10.5-8.55-12.5-2.83-25.2-5.27-36.82,1.89-5.79,3.56-10.63,9-15.11,14.19-2.09,2.45-2.31,6.51-3.48,10.18,22.29,1.26,36.13,14,48.21,29.43,7.29,9.29,14.75,18.5,21.28,28.32,4,6,6.31,13.05,9.35,19.55-5.41,3.2-8,0-10.46-3.2a20.18,20.18,0,0,0-16.6-8.29c-.19,2.08-.37,4-.55,6l-1.32.07c-.27-1.29-.56-2.59-.81-3.89-.86-4.51-2.81-5.67-6.45-2.82-2.36,1.84-3.88,5-5.21,7.84-.87,1.84-.74,4.15-1,6.26L931,835a55.72,55.72,0,0,1,0-6.84c1.35-10.52-.65-20.09-6.91-28.88a87.09,87.09,0,0,1-7.65-14c-5-10.69-16.69-16.29-27.6-12.85A5.31,5.31,0,0,0,886,774c-2.16,3.3-4.06,6.77-6.09,10.16-2.22,3.71-4.37,7.47-6.76,11.08-2.13,3.2-4,8.11-6.92,8.91-5.87,1.62-12.37,1.18-18.6,1.09a7,7,0,0,1-5.07-2.83c-5.29-8.8-10.63-17.61-15.08-26.84-1.76-3.65-1.27-8.38-1.82-12.73-1.33,1.89-2.62,3.93-4.12,5.81-3,3.8-8.05,4.05-10.34-.16-4-7.43-7.82-15.17-4.55-24.16,2.39-6.56,4.41-7.88,12.17-6.44-.72-4-1.2-7.64-2.07-11.2-1.33-5.48-3-10.89-4.43-16.34-2.65-9.89,1.48-18.58,6.13-26.48,5-8.54,3.86-17.38,3.56-26.21-.07-2.15-3.06-4.54-5.19-6.21-7.34-5.74-14.92-11.18-22.36-16.81-5.08-3.85-9.78-8-11.71-14.5-.46-1.53-2.46-2.6-4.92-5l-26.9,40c10.8,1.19,15.41,5.57,15.3,13.52-.15,10.7-3.46,14.59-13.25,15.57-10,1-13-1.6-15.69-14.48-2,3.46-3.41,6.37-5.27,9-1,1.47-2.8,2.44-4.24,3.63l9.81-18.8c-3.44.3-6.7.36-9.87.93-5.93,1.06-10.2-1.14-13.94-5.67-4.6-5.57-6.13-12-5.86-18.91-9.06-.39-9.38-.17-13.1,9.13,6.5,5.5,13.25,11.13,19.9,16.87,5.39,4.64,11.18,9,13,16.44,2.41,6.84,4.86,13.67,7.21,20.53a26.7,26.7,0,0,1,1,4.87c1.42,10.27,6.5,17.81,16.21,21.94a29.63,29.63,0,0,1-3.39-.74c-18.27-6.31-31.24-19.33-40.68-35.25-8.86-15-18-30-22.92-48.57-1.32,4.46-2.65,7.54-3.12,10.74-1.37,9.54-2.58,19.11-3.52,28.7a166.66,166.66,0,0,0-1.14,21.28c.21,6.62,1.5,13.22,2.44,19.82,2.19,15.36,7.83,29.23,18.27,40.89,7.64,8.55,15.47,16.93,23.2,25.39q5.22,5.71,10.41,11.46c9,10,17.31,20.82,27.27,29.79,11.71,10.54,24.84,19.52,37.42,29.09,17.68,13.45,30.76,30.32,38,51.43,2.35,6.89,3.83,14.08,5.68,21a30.41,30.41,0,0,1,2.18-3.64,38.73,38.73,0,0,1,3.42-3.6c12.45-12.51,28.56-18.37,44.87-22.76,15.56-4.19,31.06-9.47,47.62-9.41,8.1,0,15.48,1.37,22.38,5.61,2.38,1.46,4.93,3,7.6,3.58,9.28,1.84,18.64,3.25,28.19,4.86-7.69-8.35-15.27-16.49-25.23-22.4-9.38-5.57-18.47-11.83-23-22.75a17.34,17.34,0,0,0-7.3-8.37,197.78,197.78,0,0,0-27.38-12c-21.92-7.3-44.14-13.67-66.1-20.83a150.47,150.47,0,0,1-21.5-9.26c-8.2-4.17-13.66-11-16.6-19.78-4.22-12.52-9-24.71-18.24-34.61-3.74-4-7.16-8.35-10.54-12.67a29.49,29.49,0,0,0-14.91-10.38c-2.07-.63-3.82-2.27-5.72-3.45,24.31,7.58,35.62,27.84,46.87,48.14a1.47,1.47,0,0,1,.17.47c4.81,23.52,21.47,34.06,42.85,40.29,23.15,6.75,46.07,14.29,68.94,21.91a110.66,110.66,0,0,1,21.3,9.71c3.91,2.33,7.83,6.21,9.56,10.31,4.51,10.65,13.67,15.91,22.31,22.08a199.87,199.87,0,0,1,19.83,15.61c4.06,3.76,6.95,8.79,10.22,13.36.8,1.12,1,2.65,1.78,4.72-1.41-.46-2.18-.47-2.48-.85-6.5-8.22-16.23-8.07-25.22-10.18a88.49,88.49,0,0,1-18.08-6.44c-7.26-3.51-14.42-5.86-22.57-4.14-14,3-28,5.54-41.93,8.73-4.41,1-8.51,3.43-13.28,5.42,3.51,7.25,9,10.58,15.4,12.67,8.53,2.8,17.5,4.55,24.49,10.74,2.61,2.3,4.77,5.09,7.32,7.45,3.25,3,6.69,5.78,10.64,9.16a6,6,0,0,0,0,2.58c6.18,20.73-9.56,33.22-24.46,36.59-8.84,2-18.15,2.43-27.27,2.62-15.68.32-31.08.78-46.16,6.5-9.22,3.5-19.44,4.35-29.19,6.47-2.25.49-4.44,1.29-6.66,2l-.57,1.48c4.7,2.12,9.21,5.13,14.14,6.19,14.62,3.15,29.38,5.68,44.15,8.11a21.51,21.51,0,0,0,9.78-.86c11.94-3.91,29.11-1.86,37.49,11.66s10.16,31.42,1.9,43.44a42.34,42.34,0,0,1-30.84,18.45c-9.65,1.09-19.55,0-29.33-.13-2.47,0-4.93-.38-7.9-.62,1.46,11.37-7.45,13.77-15.23,17.71,5.3,10,10.31,19.74,15.66,29.32,5,9,10.37,17.85,15.68,26.7.89,1.49,2,3.18,3.45,3.94,7.4,3.87,9,8.78,6.89,17.15-2.67,10.54-10.38,15.69-19,20.42-7,3.86-13.84,8.2-20.76,12.33,1.21,3.2,1.88,5,2.61,6.85,5.84,14.66,3.45,30,3.63,45.11,0,3.12.36,5.4,2.74,7.86,8.67,9,10.12,20.22,9.14,32a5.76,5.76,0,0,1-1.31,2.5c-1.5,2.07-3.52,3.88-4.53,6.16-2.48,5.61-6.22,9.09-12.47,10.24-9.43,1.73-18.72,4.36-28.19,5.79-3.74.57-7.81-1.06-11.74-1.66-3.37-.51-6.28-3.34-10.33-.37-1.68,1.24-5.75-.46-8.63-1.22-5.39-1.43-10.7-3.15-16.93-5,.25-3.13.8-7.2.82-11.28a29.71,29.71,0,0,0-1.12-9.57c-1.89-5.53-1.84-10.17,2.62-14.61,5.63-5.6,5.22-13.69,3.66-19.82-3.58-14-3.13-28-2.67-42.07a7.81,7.81,0,0,0-.56-1.67,78.57,78.57,0,0,0-9,.85c-5.55,1.11-11,2.76-16.54,3.87-9,1.79-19.94-4.73-22.47-13.5a13,13,0,0,1,.15-7.31c2.21-6.62,5.41-12.92,7.33-19.61a203.6,203.6,0,0,0,5.3-24.21c1.76-11,2.81-22.08,4.33-33.1.48-3.46,0-5.11-4-6.31-4.37-1.31-8.15-4.59-12.54-7.23-5.92,5.35-12.51,11.63-19.44,17.5-12.35,10.45-26.26,17.51-42.72,18.85a29.1,29.1,0,0,1-19-4.78C620.16,1153.25,620.41,1143.34,628.24,1135.12ZM327.14,781.74c.11,1.78-.13,3.67.4,5.31,1,3.13,3,3.89,6.8,1.08L327,781.88l-3.6-12.12-3.48,4.08c-.32.38-.7.71-1,1.11-2.23,3.25-1.37,5.17,2.55,5.78C323.38,781,325.26,781.41,327.14,781.74Zm16.05,399.74-4.8-3.75c-1.27,2.38-2.33,4.36-3.47,6.47l11.07,1.94-2.11-3.61c8.81,7.52,18.25,9.33,27.85,5a74.44,74.44,0,0,0-10.22,1c-4.74.79-8.54.34-11.71-4.24-2.54-3.69-6.52-6.38-9.85-9.52l-.76.76C340.52,1177.49,341.86,1179.48,343.19,1181.48Zm414-704.87q.67,5.2,1.34,10.39l1.29,0c.36-2.14.73-4.27,1.09-6.41l1.18.08.57,10.76.33-.09.79-11.93c5.06,2.64,10.4,2.9,15.86,1.9-.26,1.3-.57,2.59-.79,3.89-.4,2.42-.75,4.85-1.16,7.53h5.87a29.43,29.43,0,0,0-.92-3.09c-4.16.78-2.45-2.34-2.72-4-.22-1.39-.26-2.81-.37-4.21,2.69-2.5.34-2.58-1.36-2.6a40.88,40.88,0,0,1-20.89-5.87,15.59,15.59,0,0,0-14.86-.69c-4.2,1.9-7.88,4.93-13.05,8.27,1.77-2.23,2.63-3.52,3.69-4.62,7.34-7.62,17.83-9.13,27.8-3.81a34,34,0,0,0,19.39,4c-2.06-6.18-3.61-11.75-5.79-17.07-1.63-4-4.86-5.37-8.79-2.73a79,79,0,0,0-7.06,5.49c-3.95,3.35-8.12,2.64-10.65-1.92-.72-1.31-1.41-2.64-2.14-3.94-1.59-2.82-3.4-4.62-7.21-3.52-1.11.32-3.67-1.63-4.35-3.1-2.11-4.62-5.36-7-10.78-6.86,1.72,13.19,3.89,26.44-3.22,38.91l.82,1,5.33-3.53c1.59,4.48,6.25,3.55,9.93,2.61,4.24-1.08,8.11-3.67,12.14-5.6,4.35-2.08,8.57-2.57,12.46,1l-3.75-.3c-2.6,0-6.47-.91-7.5.39-1.59,2-1.22,5.54-1.69,8.42l1.08.17,1.5-7.6.86.17.51,10.6,1.5-.07v-10l1.22-.08q.49,6.35,1,12.67l.57-.2Q756.76,483.85,757.21,476.61ZM637.33,445.26c-5.38-5-10.79-9.93-16.13-14.95-3.06-2.87-6-5.85-9-8.77l-.5.53,8.26,10.32c-1.39-1.14-3.05-2.06-4.11-3.45-13.64-17.79-27.41-35.48-40.68-53.54-8.72-11.87-9.23-26.48-11.83-40.31-.83-4.41-.86-9-1.26-13.47l2-.31a157.43,157.43,0,0,0,9.66,45.63c-2.37-13.68-5.33-27.24-4.15-41.18q2.65,16.85,5.3,33.7l1.44-.19q-1-13.5-2-27c4.29,16.18,2.8,33.52,10.92,48.83,9.41,17.75,23.26,35.89,30.51,39.35-1.23-1.72-2.2-3-3.11-4.36L600,397.57c.12-.62.54-1.36.33-1.82-3.65-8-7.39-16-11.58-25.07.68,5,1.22,9.07,1.77,13.1-4.55-2.19-5.35-6.61-6.1-10.83-2.44-13.73-4.65-27.5-6.95-41.26l1.08-.22L584.78,362c-1.15-15.68.55-31.91-9.36-45.84-1.6-2.26-2.9-3-5.62-2.48-5,1-10,1.57-14.23,2.21l-6.07-6.81c9.15,6.15,17.51,4,25.51-2.62l-22.12,1.22c0-.39,0-.78-.07-1.17l24.95-2.26a28.34,28.34,0,0,0,1.49,4c2.56,4.37,6,8.41,7.62,13.09,1.92,5.76,2.24,12,3.29,18.09a22.49,22.49,0,0,0,1.18,5.23c2.49,5.59,5.26,11.06,7.79,16.63,1.24,2.73,2.19,5.58,3.27,8.38l.9-.31-1.22-8.74q2.74,11.85,5.51,23.7l.69-.08v-7.38c2.92-15.54-.59-30.85-1-47.24-1.13,1.35-1.91,1.85-1.9,2.33.25,9.59.4,19.18,1,28.75.33,5.46,1.37,10.87,2.08,16.28-2.28-13.66-4.55-27.33-6.84-41.09a14.51,14.51,0,0,0-.4,2c-.43,5.39-.83,10.79-1.24,16.18-4.26-4.42-6.84-11-6.35-15.87a42.85,42.85,0,0,0-6.49-27.57c-2-3.14-3.37-6.61-5-9.94l1.47-.62c6.92,10.44,10,22.54,13.49,34.49l1.84-.16,2.1-20.68.49-.17q1.56,7.07,3.13,14.14l1.45.09c.18-3.44.35-6.89.57-11l3.36,5.33c5.65-12.3,15.29-21.74,17-34.92,1.91-2.17,3.21-4.71,4.87-7a45.77,45.77,0,0,1,4.58-4.77l-5.27,11.23c3.09,2.05,5.78,4.05,7-.6a119.75,119.75,0,0,0,3.38-17.33c.57-5.56.13-11.21.13-16.82l-1.27-.2c-.76,1.57-1.63,3.1-2.24,4.72-.84,2.26-1.08,4.86-2.33,6.83-1.61,2.55-1.43,3.89,1.11,5.61,3.41,2.31,3,4.55-.65,6.74,3.15-4.73-1-5.93-3.47-7.92l-6.15,6-1.5-.77c0-7.33.19-14.67-.06-22-.22-6.17-.94-12.33-1.54-18.49,0-.41-1-.73-1.53-1.1l.16.17c-.45-.64-.76-1.52-1.37-1.87-8.43-4.83-17.46-7.05-26.83-3.85-6.55,2.24-12.57,6-19,8.6-4.3,1.77-8.53,2.93-13.26-.39-6-4.23-11.83-3.63-15.3.57-.85,1-1.56,3.42-1,4.19,3.35,4.5,7.09,8.71,10.7,13a5.94,5.94,0,0,0,1.2-3.24c.09-.65.32-1.29.83-3.24.85,9.28.85,9.28,3.83,10.82.44-1.72.87-3.44,1.31-5.15l1.49.3c-.35,3.41-.7,6.82-1,9.38l-9,.9c-.34,2.09-.69,4.28-1.13,7l-10.69-2a131.43,131.43,0,0,0-5.74,38.9c.08,5.52.88,10.76-1,16.36-1.67,4.91-1.35,10.5-1.82,15.8-1.71,19.28.65,37.83,10,55.13-4.08-1.06-6.31-3.77-7.06-7.85-.24-1.3-.59-2.59-.91-3.88-4.54-18.68-4.94-37.52-2.28-56.5.59-4.23.69-8.52,1-12.78a49.68,49.68,0,0,0-5,13.06c-3.19,14.11-3.36,28.16.42,42.31,2.38,8.88,2.68,18.45,5.9,27,5.87,15.48,12.14,31.2,26,41.72a177.13,177.13,0,0,0,49.22,26.07c3,1,6.13,1.64,9,2.83,8.37,3.43,15.78-.8,25-2l-6.5-3c-3.68-2.42-7.45-4.72-11-7.27-8.27-5.89-17.07-11.21-24.49-18-8-7.33-14.59-16.15-21.87-24.26-9.27-10.31-18.32-20.76-22.26-34.49-.72-2.48-.65-5.27-1.72-7.55-5.9-12.68-6.56-26.33-7.85-39.88-.29-3-1.13-6-1.36-9-.11-1.42.62-2.91,1-4.37L551,315c1.42,11.65,2.56,23.34,4.32,34.94,2.71,17.74,7.15,35,19.24,49,7.27,8.43,15.6,16,22.67,24.57,12.86,15.63,29.63,26,46.55,36.32,1.13.68,2.36,1.61,3.56,1.63.93,0,1.89-1.22,2.83-1.9l4.49,1a61.52,61.52,0,0,0-9-8.77C642.9,449.58,640.1,447.44,637.33,445.26ZM331,1100.82l6.19-2.32c-.27-3-.58-6.67-.89-10.29l-2,0c-1,4.21-5.58,7.31-3.2,12.58v19l6.89-1.52v-5.49l-4.87-1.11c5.34-1.32,5.54-1.86,3.59-10.44ZM507.14,336.54l5.92-5c-3.4-3.87-4.38-9.22-10.5-10.27-4.88-.83-9.42-2.43-14.44,1.07,2.44,0,4.48-.51,6.05.13,2.19.9,5.28,2.31,5.79,4.12a16.21,16.21,0,0,0,7.28,10.07l-10,6.51,1,1.32C502.05,342.84,506.26,341.65,507.14,336.54Zm97.1,56.16c.1-3,1-6.22.16-8.95-2.7-9.06-6-17.95-9.09-26.89A21.4,21.4,0,0,0,593.8,354l-1.7.63q5.82,18.17,11.65,36.32a28.5,28.5,0,0,1-2.59-4c-5.32-12.46-9.31-25.27-10-38.95-3.72,15.39,3.15,40.12,14.52,51.17C605.1,396.43,604.67,394.57,604.24,392.7Zm-224,712c-9.41,2.06-12.78,7.65-10.09,16.67.52,1.73,1.74,3.89,1.17,5.2-2.9,6.6,2.5,9.32,5.75,13.16-.23-3.19-1.82-6.32-1.5-9.24s2.59-5.37,4.47-8.9a17.26,17.26,0,0,1-2.51-2.14c-.94-1-2.5-2.64-2.22-3.46,1.32-3.9,3.18-7.61,4.84-11.39,9.21-2.65,18.34-4,27.55,1.76-.16-2.35-.32-5.16-1.67-6C399.11,1096.38,386.75,1098.67,380.21,1104.72ZM734,612.45l-4.26,3.06,18.55,22.7c-2.25-2.11-4.95-3.91-6.67-6.38-5.84-8.37-12.32-8.58-21.16-1.29-2.61,2.15-5.3,5.68-5.66,8.84-.95,8.39,3,13.45,11.32,15.4,3.24.75,6.79.12,9.79.12-4.66,4.68-10.73,2.28-15.42.11-7-3.23-7.66-10.64-7.62-17.74-3.79,2.4-4.13,9.24,0,15.4,2.3,3.48,5.42,7.85,9,8.75,5.4,1.37,11.47.08,18-.1.08,1.65.24,4.4.31,7.15.31,11.77,3.47,14.56,15,13.2,6-.7,9-4.65,9.43-12.54.33-5.4-2.78-10.48-7.79-11.17-2.63-.36-6.76.28-8,2-1.72,2.46-1.58,6.36-1.73,9.67,0,.71,2.13,2.16,3.24,2.12a6.26,6.26,0,0,0,4-2.07c.83-.93.85-2.59,1.22-3.93l1.3.52c-.36,2.68-.73,5.55-4.11,6.74-3,1.08-6.6,1-7.25-2.82a20.45,20.45,0,0,1,.93-10.41c1.41-3.63,4.1-6.84,6.56-10,2.28-2.9,2.67-5.48.1-8.27l4.43-.15a38.14,38.14,0,0,0-1.42-4.31A22.41,22.41,0,0,0,754,634l5.34,3.5,11.33-15.28-7.92-4.56c-2.75,4.17-3.55,8,0,11.72l-16.6-7.49-.69.89L754,634c-1.23-.77-2.73-1.31-3.64-2.36-5.57-6.36-11-12.83-16.46-19.26l11.24,9.22c.78-5.07,1.51-9.77,2.36-15.24-2.23,0-4.3-.61-5.59.13C739.08,608.1,736.62,610.41,734,612.45Zm76.83,717.42,7.92-4c-8.32-5.65-19-4.13-27.82,3.91h20c-2.76.27-5.53.51-8.29.82-6.66.76-13.32,1.55-20,2.33.06.53.11,1.07.17,1.6,15.3,8.41,30.25,4.23,45.42-1.38C822.32,1329.41,818.68,1328.75,810.84,1329.87Zm3.31-61.76-5.94-.57c-.51,4.24-1,7.94-1.55,12.77,4.48-4.26,10.07-5.91,11.39-11.91.7.85,1.9,1.63,2,2.55.55,4.15.79,8.35,1.19,13.15,3.83-3,7.2-5.68,10.51-8.38,4.7-3.83,3.84-12.3-1.68-14.79a33.71,33.71,0,0,0-22-2.23v7.75Zm8.71-63.14c.48-.66,1.39-1.34,1.36-2a53.27,53.27,0,0,0-.82-5.86c-1.58.73-3.38,1.2-4.7,2.26-3.29,2.66-6.36,5.59-9.53,8.41,2.17-2.66,4.53-5.2,6.43-8,1.12-1.68,1.51-3.84,2.5-6.53h-9.31l-.09-1.07,10.93-1.77c-1.71-3-2.81-5.79-4.59-8-2.54-3.12-4-5.84-1.45-9.82,1.25-1.95,1.19-4.74,1.73-7.15-15.72,18.32-36.46,21.49-57.86,21.15.76,6.32,1.49,12.34,2.2,18.2L771,1186.5l1.06.69-14.25,25.26h32.24v-27.24l2,0v27.54l2,.07a71.65,71.65,0,0,1,1.43-8.43,5.19,5.19,0,0,1,2.82-2.8,3.12,3.12,0,0,1,2.63,1.49,73.65,73.65,0,0,1,.73,8.15h-1.09l-1.25-8.25-2,0c-.24,3.11-.47,6.22-.8,10.47l10.62-2.81,15.82-5.84c-1,1.3-1.7,3.22-3,3.79-11.76,5.07-24,6.7-36.83,5.69-7.24-.57-14.61.35-21.91.8-1,.06-2,1.26-3,1.93l.72,1.16a12.61,12.61,0,0,0,1.85-.19c13.2-3.53,25.9.6,38.74,2.56,3.44.53,3.25,2.89,2.27,5.26a17.31,17.31,0,0,1-2.54,3.42c9.43,1,12.69.19,19.7-4.75,10-7,10-7,6-18.29C824.85,1205.6,823.61,1205.37,822.86,1205ZM642.5,299.73c-1-2.43-2-4.89-3.19-7.28a10.83,10.83,0,0,0-1.7-2.05c-.74.7-2,1.31-2.12,2.11-.34,2.11-.1,4.31-.28,6.46-1.37,17,11.29,30.71,27.7,33.16,3.06.46,6.41-1.09,9.63-1.71-4.5-3.45-9.24-5-12.86-7.92s-6.47-7.43-9.65-11.23a52.44,52.44,0,0,0,26,16.19l12.38-9.39c-4.54-1.45-7.88-3-11.37-3.55-11.66-1.88-20.68-7.49-27.36-17.32-1.69-2.48-4.89-3.94-7.4-5.87l-1.49,1.05Q641.64,296.05,642.5,299.73ZM312.24,1079.67c.71.14,2,.27,2,.43.15,8.79,6.93,13.6,10.74,19.2L346.84,1065c-22.79-5.12-28.91-.54-34.46,14.82-8.21,6.84-16.08,13.93-20.22,25.09,2.7-.75,4.64-1.81,6.47-1.66,2.44.21,6.34.75,6.92,2.22,2.38,6,7.38,5.94,12.21,6.64,5.07.73,7.89-2.1,6.28-6.8-1.25-3.65-3.59-6.92-5.22-10.46C316.52,1089.82,314.43,1084.72,312.24,1079.67Zm322-751.34c-.64-9.45-2-18.87-.53-28.36a39.77,39.77,0,0,0,.42-6c0-3.49-1.56-5.61-6-5.65-.31,3.17-.68,6.22-.9,9.29-.62,8.62-.62,17.32-1.84,25.86-3.46,24.27-3.71,48.35,1.87,70.64.77-32.72,1.59-67,2.4-101.37l1.45,0c.21,39.36-5,78.82.87,119.15.11-2,.19-2.94.21-3.88.4-20,.76-40,1.21-60,.15-6.63.52-13.26.8-19.87.47,4.14.94,8.27,1.43,12.5l12.07-10-12.74-15.83C634.63,319.75,634.41,324,634.2,328.33Zm161,794.38a50.06,50.06,0,0,0-.07,7.24c.11.84,1.64,1.51,2.52,2.25.71-1,2.25-2.38,2-2.81a64.91,64.91,0,0,0-4.6-6.55c-1.46-1.55-2.58-3-5.36-1.71a52.44,52.44,0,0,1-12.74,4.3c-6.47,1.16-13.09,1.46-19.78,2.14,2.34,8,1.22,14.87-3.3,17.38-5.18,2.89-9.44-.11-13.63-4.2-1.31,10.35-2.54,20.06-3.79,30,6,0,10.78.14,15.58,0,5.3-.2,8-2.42,8.53-7.78.81-8.73,1.33-17.51,1.42-26.27.06-6.4,2.32-8.47,8.17-6.21,1.52.58,3,1.38,3.49,1.63l8.82-3.72c2.21-1.3,4.49-2.87,7-4A35.45,35.45,0,0,1,795.24,1122.71Zm-492.6,73.88h0c.79-2.31,1.57-4.61,2.37-6.91.5-1.43,1-2.84,1.57-4.26l-1.35-.61-12.81,10.24c1.66,1.83,3.27,2.84,3.44,4,.11.84-1.94,1.84-2.64,3-.5.83-.37,2-.5,3.11l-3.71,2.39-12.78-13.41c0,11.07.1,20.81,0,30.54-.07,5.26-.73,10.52-.72,15.78,0,1.5,1.44,3,2.68,5.41.85-2,1.14-2.55,1.37-3.15,4.25-11.3,8.53-22.58,12.72-33.9a15.27,15.27,0,0,0,.38-3.74c3.65,1.7,1.47,4.16.69,6.27-3.41,9.34-7.09,18.58-10.35,28-2.71,7.82-1.46,10.88,5.81,16.18,8.78-14.24,14.16-28.94,7-45,9.13-5.59,17.78-10.51,26-16.07a34.35,34.35,0,0,0,9.66-9.71c1.44-2.27,1.36-6.33.41-9s-3.83-4.54-6.23-3.39c1.13,3.23,3.7,6.72,2.91,9.09-1.62,4.9-6.66,3.73-10.78,3.36-.94,5-.94,5-6.71,5.9C310.84,1198.59,310.07,1199.13,302.64,1196.59Zm77.44-488.31-1.51-3.63c-12.81,15.56-25.22,30.77-37.82,45.81-2.45,2.92-1.84,4.78,1,6.34a71.37,71.37,0,0,0,11.2,5.35c1.47.49,4.11-.46,5.34-1.65a83,83,0,0,0,8.82-10.17c8-10.82,16-21.68,23.61-32.76,1.06-1.54.16-4.44.17-6.7-2.18.54-4.39,1-6.52,1.66a28.63,28.63,0,0,0-3.92,1.94c-.2-2.73-.34-4.53-.46-6.31.55,1.46,1.1,2.91,1.95,5.14,3.84-6,5.91-11.55,3.53-18,1,4.24,2,8.48,3,13.1l6.06,3c-.12-2.08.08-4.55-.46-6.85-1.49-6.31.38-11.82,3.46-17.14,1-1.72,2.85-3.31,3-5.09.7-6.79,6-6.1,10.51-6.79a11.12,11.12,0,0,1-4,2.7c-1.17.53-3.09.57-3.49,1.4-2.68,5.48-5.78,10.92-7.26,16.75-1,4.13.15,8.85.56,13.29.14,1.48.93,4.11,1.47,4.13,2.46.07,5.3,0,7.29-1.23,1.52-.91,2-3.6,2.89-5.49h-1.82c-.46-3.5-2.15-7.4-1.16-10.43,3.19-9.85,4.07-21.37,15.08-26.73a16.94,16.94,0,0,1,8.79-1.23c1,.1,1.7,3.28,2.21,4.35-2.58-1.2-4.81-3.13-7-3.08-3.9.08-5.14,3.33-4.79,6.82.37,3.65,1.2,7.24,2,11.68,13.32-15.23,24.49-31.14,40.49-42.85-7.6-10.31-18.35-12.16-31.4-11.14l4.25-5.7-.73,2.73,25,5.36c.69-3.37,1.54-7.2,2.23-11.06a6.55,6.55,0,0,0-.16-3.38C459,616,459,608.55,453.61,603.24c-1.33-1.3-1.82-3.51-2.53-5.37-4.8-12.52-4.93-25.44-3.09-38.5.32-2.26.39-3.82-2.56-2.45l2.26,1.16c1,11.19.92,21.91,3.09,32.16,3.47,16.3,14.83,28,26.53,39,2.12,2,6.07,2,8.47,2.74-2.08-8.23-4-15.86-5.95-23.49,2.28,4.37,3.41,9,4.58,13.7,1.75,6.92,5.47,10,12.45,10.72,2.79.3,5.5,1.25,8.27,1.82,1.28.26,2.6.29,4,.43-4.68-8.6-8.85-16.69-13.51-24.49-1-1.67-3.81-2.25-5.75-3.39-2.19-1.29-4.12-2.69-1.84-5.45,11.29,5.35,13,18,20.21,26.37,0-7.48-.33-14.48.06-21.44.89-15.6,2.71-31.17,3.12-46.78a225.92,225.92,0,0,1,19-86.13c6-13.54,10.86-27.57,17.28-40.87,3.15-6.52.92-10.45-3.36-15.3-5,4.61-10.15,9-14.92,13.86Q497.62,463.63,466.08,496c-1.82,1.87-3.53,4.63-3.77,7.12-1.06,11.34-.55,22.95-7.82,32.81-.75,1-.84,2.51-1.21,3.79L449.74,552c.79-6.44,1.8-13,4.59-18.64,5.19-10.6,2-21.13-.2-31.17-.92-4.15-1.25-7.53-.36-11.35.74-3.19,1.67-6.35,2.59-9.8-6,2.86-8.82,8-8.32,13.36.28,3-.26,6.09-.49,9.13-.32,4.11-1.69,8.46-.79,12.27,1.08,4.61,4.06,8.77,6.55,13.78-15.08,10.1-25.94,23.42-24.05,45.26l7.17-5.79c-1.25,1.86-2.12,4.76-3.82,5.38-4.86,1.76-4.9,5.4-5.2,9.55h8.89a14.93,14.93,0,0,1-6.51,1.53c-4.45.3-4.8,4.25-5.51,7.08-.9,3.5,2.35,3.82,4.87,3.92s5-.82,7.16-.15c9.51,2.92,13.63,12,10.28,21.78a6,6,0,0,0-.44,2.42c.39,4-1.61,5.72-5.29,5.14-3.05-.47-4.57,1-5.83,3.29.28-1.63,0-3.8.94-4.78,3.4-3.53,2.95-7.33,1.85-11.48a17.19,17.19,0,0,1-.35-5.41c.47-7.83-2-10.14-9.87-9,3.94,8.73,3.12,17.84,2.33,27-.27,3.14,0,6.32,0,10.7a9.23,9.23,0,0,0-1.8,2.31c-.57,1.08-1.2,2.91-.7,3.59a5.59,5.59,0,0,0,3.77,1.68c3.29.23,6.6.07,9.9.07-10.2,1.28-10.2,1.28-13.32,10.35-3.62-3.58-9.6-3.45-14.68.45-5.31,4.07-10.66,7.76-17.67,8.59-1.77.21-3.74,2.74-4.73,4.67-1.69,3.28-2.54,7-4,10.41-1.9,4.37-4.06,8.63-6,12.79L384,694l-3.91-.55Zm77.11-215.67c-2.23,7.45.64,14.32,2.21,21.4a26.79,26.79,0,0,0,1.38-9.23c-.24-4.6,1.76-7.87,4.86-11q15.69-15.71,31.15-31.64c15.31-15.7,30.57-31.46,46.24-47.6l-7.46-13.23c-5.84,6.49-11.4,12.17-16.39,18.32-5.77,7.1-10.29,15.36-16.73,21.71s-11.09,13.71-15.56,21.57c-3.46,6.1-8.82,12.32-14.91,15.39-6.35,3.21-10.71,5.86-10.28,13.38,0,.16-.49.34-.83.55l-1.71-1.57-.66-7.14-1.26.08c-.7,2.71-1.42,5.41-2,8.15A9.86,9.86,0,0,0,457.19,492.61Zm53.42-123.16c3.87-5.24,9.8-6.17,15.92-7.29-.2-4-.38-7.71-.59-12-1.94.26-3.48.17-4.77.71-6,2.49-11.95,5-17.81,7.78-9.21,4.34-12.4,10.52-10.65,22.66,1.06,7.38-.45,13.84-6.85,18.59a60.38,60.38,0,0,0-9.49,8.08,21.92,21.92,0,0,0-5,8.9c-2.29,9.51-4,19.16-5.76,28.79a98.44,98.44,0,0,0-.79,10c6.68-6.51,14.23-11.78,15.86-21.21l-.37,4.65,1.68.54c1.15-2.69,2.68-5.29,3.4-8.09,2.57-10.09,6.29-19.43,13.12-27.62,2.62-3.13,4-8,4.29-12.19.45-5.68,2-10.6,6.27-14.09,4.55-3.73,9.7-6.73,14.61-10,1.07-.71,2.22-1.3,4.42-2.58C520.27,363,515.65,367,510.61,369.45Zm300.63,749.21c5.21,10,9.65,20.53,15.85,29.88,5.68,8.57,6.62,16.78,3.55,26.14-.92,2.81-1,5.9-1.38,8.59,6.72,3.29,9.51,3.48,12.9,1,5.05-3.71,10.05-7.5,15.31-11.43L826,1115.54l-14.84,3.22a41.28,41.28,0,0,1,5.55-3.54c6.66-3,13.63-5.36,20-8.79,2.1-1.13,3.31-4.66,4-7.33.23-.92-2.18-3.35-3.74-3.76-16.63-4.45-32.48-13.58-50.73-8.88-2.23.57-4.62.51-6.89,1-15.69,3.11-29.84,10.29-44.2,16.9-9.6,4.41-16.67,11.73-23.33,19.62,2.66,5.23,6.81,8.06,12.36,8.34,3.68.18,7.4-.5,11.11-.58a50.84,50.84,0,0,1,6.3.65l2.74-4.16c-4.39-3.34-9.82-4.94-11.9-10.21,3.29,1.7,6.11,4,9.11,5.94,5.79,3.85,10.25,3,14.75-2.21a116.56,116.56,0,0,1,11.29-12,26.47,26.47,0,0,1,9.2-4.65c3.34-1.06,4.26.25,3.79,3-1.88-.21-3.61-.91-5-.46-7.91,2.59-12.14,9.37-16.79,15.74a11.55,11.55,0,0,0,5.6-3.34c3.51-4.09,7.92-4.81,12.28-2a13,13,0,0,0,5.87,1.89c6.84.46,12.21-2.42,16.47-7.74a21.8,21.8,0,0,1,13.65-7.84l-17.93,14.3,7.29,6.38v-5.09ZM607,484.87c-.69,4,2.44,3.39,4.63,3.75,11.35,1.89,22.06-2.13,33-3.7,4.49-.64,7.78-3.11,10.54-6.85,1.71-2.3,4.7-3.64,7.12-5.41l-.75-.35-9.54,10.31,1.64,2.1c9.95,1.61,19.59-.23,29.12-3.22.57-.18.94-.92,1.5-1.23,1.73-1,3.46-2.49,5.29-2.67,8.34-.8,16.72-1.23,25.9-1.84v-30c-5.5.9-10.07,1.7-14.65,2.37-5,.74-8.12-1.28-9.82-6.22-.81-2.33-2.54-5.35-4.57-6.08-13.58-4.94-27.28-9.87-42.15-5.86-3.06.82-6.18,1.44-9.54,2.21,4.66,6.95,9.81,9.49,17.3,6.49,4.24-1.71,9.57-1.12,11.61,2.87,1.58,3.09.29,7.8-.2,11.73a12.56,12.56,0,0,1-2.5,5.19c-1.47,2.09-3,4.37-5,5.77-3.21,2.21-7.47,3.11-10.25,5.68-8.41,7.76-19.08,9.34-29.48,10.94-3.94.6-7.27.34-9.36,4.18.33-4.51,2.89-6.2,7.27-6.42,2.94-.14,5.83-1.22,10.05-2.18-3.86-1.3-6.28-1.93-8.53-2.93a61.65,61.65,0,0,1-5.94-3.42l3.17-5.18a168.57,168.57,0,0,1-61.7-36.62c-.62,1.46-1.16,2.62-1.63,3.81-5.08,12.83-9.78,25.83-15.32,38.46-10,22.87-17.85,46.41-19.86,71.34-2.09,25.86-2.95,51.82-4.07,77.75-.18,4.08.88,8.27,1.8,12.31.26,1.13,2,2.4,3.26,2.72,5.29,1.31,10.76,2,16,3.45,9,2.49,20.29-2.56,23.73-11.07,1.56-3.83,2.7-7.85,4.4-11.62a10,10,0,0,1,3.66-3.67c.36-.24,2.43,1,2.52,1.66.47,3.66,1.57,7.58-1.65,10.7.37-3.72.73-7.26,1.09-10.79l-2.12-.49c-2.62,6.42-5.24,12.84-8,19.57,6.71-.21,12.57-1.65,17.34-6,12.38-11.37,24.69-22.82,37-34.23l2.93-2.71a2.4,2.4,0,0,1-.6,2.53c-10.9,10.52-21.64,21.21-32.83,31.41-4.23,3.86-9.11,7.68-14.4,9.56-9.86,3.53-20.24,5.62-31.75,8.67,3.58,0,6.23-.8,8,.13,7.53,4,15.85,3.71,23.25,2.19,18.34-3.78,35.34-10.85,46.86-27,3.77-5.29,7.79-10.41,11.86-15.47a58.79,58.79,0,0,1,5.36-5.22,153.71,153.71,0,0,1-16.68,22.9c-6.36,7-13.68,13.1-20.07,19.13,1.83.1,4.62.29,7.4.41,1.94.08,4.3.8,5.74,0,6-3.47,11.8-7.27,17.48-11.23,3.39-2.37,6.4-5.27,9.59-7.93l.93,1.14c-4.12,3.43-8.23,6.87-13.31,11.13a24,24,0,0,0,3.2-.44c12.27-4.24,24.62-8.28,36.78-12.83s22.21-11.46,27.11-24.57c4.07-10.89,5.32-21.2-1-31.54a29.52,29.52,0,0,1-1.51-3.28c6,6.45,8.92,14.31,6.89,22.62-2.11,8.61-5.82,16.86-9.21,25.11-1.33,3.21-2.1,5.66,1.69,7.51-3.85,5.66-1.74,11.74-1.52,17.77.27,7.5,7.78,8.4,10.83,14,1.86-2.77,3.22-4.79,4.48-6.68-6.28-5.75-10.61-12-7.33-20.44,3-7.59,8.74-11.95,17.37-11.38.6-2.46,1.14-4.67,1.81-7.46.23,2,.39,3.46.56,4.92l1.32.16c.63-2.78,1.82-5.56,1.8-8.33-.1-11.82-.48-23.65-.9-35.47-.63-17.8-5.34-33.9-15.43-49.21C687.9,499.94,677,493.34,664.28,488c-.36-.15-1,.39-2.07.83,2.8,1.71,4.89,3.62,7.33,4.37,10.81,3.29,17.69,10.85,23,20.26,4.5,8,10,15.53,13.24,24,4.64,12,5.84,43.93,3.08,56.9-.55-9.8-.45-19.6-.57-29.39-.19-14-1.86-27.57-10.24-39.49-3.73-5.31-6.69-11.19-10.71-16.26a49.94,49.94,0,0,0-11.23-10.44c-5.64-3.76-11.86-6.68-18-9.72a17.89,17.89,0,0,0-12.41-1.55c-12,2.55-24,6.11-36.44,3.76-1.46-.28-3.63-1.07-3.92-2.07C605.06,488,606.39,486.35,607,484.87Zm286.56,475.9c-11.34,9.5-22,9.84-35.58,5.41-12.78-4.17-19.7-14-20.59-27.39-1.29-19.41-8.4-36.17-19.75-51.92-10.65-14.78-24.92-24.81-39.54-34.72-15.58-10.57-28.49-24-41.16-37.76-9-9.77-17.76-19.81-26.94-29.43-17.24-18.06-31-37.71-33.46-63.68-1.43-15-3.63-29.74,1.35-44.49,1.07-3.19,1-6.77,1.5-10.16a43.66,43.66,0,0,0-6.34,9.53c-6.43,12-11.2,24.22-10.22,38.45.71,10.41-1.28,21-1,31.45.27,10.07,1,20.31,3.15,30.11,6.41,29,22,53.27,40.22,76.19,17.81,22.36,34,46,43.84,73,6.71,18.37,11.45,37.59,15.38,56.77,2.72,13.27,2.36,27.15,3.77,40.71.73,7,2.33,13.82,3.54,20.73l1.62,0c1.65-3.93,3.39-7.83,4.94-11.8,5.59-14.25,15.57-23.12,30.82-26.14,11.25-2.23,22.64-4.3,33.49-7.88A105.14,105.14,0,0,1,876,992.31c4.67,0,9.4.47,14-.11,10-1.27,20.75-1.21,29.75-5.06,15.32-6.54,20.37-17,16.49-31.41a6.58,6.58,0,0,0-4.23-3.84c-4.63-1-9.42-1.24-14.15-1.78l0-.53h11.81c-8-11.5-18.87-17.6-31.5-21.51-5.37-1.66-10.21-5.15-15.11-8.11-2.65-1.6-4.85-3.92-7.36-5.76-.74-.54-2.11-1.07-2.77-.75-9.92,4.77-19.8,9.68-27.3,18.07-6.07,6.79-6.45,13.25-1.65,20.88,3.6,5.72,8.45,10,14.9,11.94,10.67,3.25,21.28,4,31.4-2.09A27.79,27.79,0,0,1,893.58,960.77ZM768.49,432.22c-.13.6-.27,1.19-.4,1.78,2.78,4.39,5.56,8.13,12,8a48.66,48.66,0,0,1,25.3,6.71c17.84,10.29,33.83,23,48.81,37.06,6.89,6.47,13.6,13.43,21.47,18.48,14.29,9.16,30.93,8.69,47,7.77a34.6,34.6,0,0,0,31.89-41.48c-1.51-7.53-5-14.72-7.95-21.9-2.36-5.7-7.61-6.5-13.11-6.93a38.89,38.89,0,0,0,0,5.46c1.11,7.15-1.82,12.7-6.82,17.34-5.69,5.27-12.49,8.55-20.26,8.59-31.13.15-60.76-4.73-85-26.65a14.65,14.65,0,0,0-5.13-3c-11.84-3.84-23.66-7.79-35.65-11.08C776.86,431.35,772.56,432.22,768.49,432.22ZM362.9,384.81c-6.43,0-10.49,3.2-14,7.85-3.75,5-7.76,9.84-11.92,14.52-7.25,8.15-17.58,10.35-27.67,6.24a6,6,0,0,0-2.81-.56c-14.56,1.83-32.22,18.65-35.54,33-2.73,11.83,8.52,31.68,21.12,32.33,8.14.42,16.21,1.92,24.34,2.49,4,.27,8.7.72,12-1,10.95-5.67,21.42-12.29,33.09-19.14-3.91-.85-6.66-1.39-9.37-2.05-20-4.85-23.68-14-18.2-29.71C339.79,412.1,348.4,396.71,362.9,384.81Zm103.57,44.78c-2.45,1.33-4.75,3.12-7.35,3.89-10,3-20,6.19-30.2,8.22-11.51,2.29-27.81-6.73-32.71-17.47-1.82-4-3.53-8.44-3.67-12.73-.42-12,5.87-21.08,14.38-28.13-3.85-2.56-8.11-4.62-11.3-7.77-2.6-2.57-3.91-2.14-6,0q-5.09,5.14-10.4,10.07c-9.48,8.81-16.32,18.88-15.87,32.51.13,4,.4,8,.59,11.95.54,11.27,5.71,19.54,15.78,24.76,2.65,1.38,5,3.35,7.67,4.65,2.9,1.42,6.05,3.41,9,3.33,5.57-.17,11.44-.77,16.58-2.75,15.51-6,30.54-13.29,46.16-18.94,6-2.16,7.61-5.28,7.58-10.64A3.56,3.56,0,0,0,466.47,429.59ZM450.81,249.85c-2.13,6.93-3.85,12.49-5.55,18a64.6,64.6,0,0,1-11.63,22.39c-8.6,10.55-16,22.11-24.76,32.49-7.9,9.33-7.91,19.7-6.59,30.61.24,1.92,1.54,3.71,2.74,6.44,2-7.07,3.13-12.79,5.25-18.11a126.86,126.86,0,0,1,8-15.49c4.25-7.5,11.09-7.71,16.48-.75,2.24,2.9,4.54,5.76,7,8.48,6.63,7.35,15.14,10.28,24.67,10.5,0-6.56-.08-12.79,0-19s.83-12.3.46-18.4c-.57-9.63-1.89-19.21-2.78-28.82C463.13,267.46,457.16,259.2,450.81,249.85Zm277.82,49c7.78,0,14.4.2,21-.13a7.94,7.94,0,0,0,5.09-2.79c7.82-9.7,15-19.92,23.17-29.33,24.91-28.81,50.18-57.31,75.23-86,1.48-1.69,3.31-4.15,3.07-6-.41-3.13-1.63-6.84-3.84-8.87-2.47-2.27-5.83-1.78-8.63,1.46-15.11,17.49-30.45,34.79-45.72,52.15-9.88,11.23-19.86,22.37-29.61,33.71-6.39,7.43-12.31,15.27-18.73,22.68S736.3,290.39,728.63,298.8ZM327.57,1059c6,.85,11.56,2.61,17,2.25,10.57-.7,18.2,2.62,22.55,12.52.08.18.54.2,1.05.36q1.8-6.9,3.58-13.76a19,19,0,0,1-.3,6.12c-.87,5.13-2.75,10-1,15.55,1.29,4-.7,7.71-4.71,10a21.07,21.07,0,0,0-6.12,4.93c-1,1.32-1.58,4.06-.88,5.36.83,1.53,3.33,3.15,5,3,4.24-.28,8.81-.69,12.54-2.5,9.86-4.79,19.38-10.05,30.55-4,.77-8.12,1.54-15.56,2.12-23a7.75,7.75,0,0,0-.87-4.24c-4.38-7.59-8.92-15.09-13.19-22.25-1.48,1.25-2.74,3.2-4.12,3.3-2.18.15-4.45-.94-6.68-1.51-2,2-4.63,4.12-7.29,4.19-1.29,0-2.68-3.67-4-5.67-1-1.49-1.78-3.25-3.09-4.38-5.1-4.38-8.13-9.52-7.65-16.52.08-1.11-1.51-3.23-2.42-3.28a6.75,6.75,0,0,0-4.35,2c-.83.77-.88,2.39-1.36,3.89,5.68,2,4.36,6.74,4.31,11.12,3.72,1.8,7.87,3,10.78,5.55,1.66,1.48,1.3,5.25,1.85,8-2.21.32-4.55,1.27-6.59.82a37.47,37.47,0,0,1-8.9-3.64c-.76-.4-1.1-2-1.28-3.07-.3-1.89.41-4.84-.59-5.56-4-2.91-3.53-6.22-2.29-10.17.75-2.41.79-5,1.32-8.74C338.58,1033.64,333.33,1046.47,327.57,1059Zm98.6-675.23c-6.44.93-13.44-2.63-18.8,2.72-3.5,3.48-7.14,7.17-9.42,11.45-3.86,7.27-4.78,14.9-.83,22.95,3.31,6.74,9.31,10.29,14.76,14.51a17.13,17.13,0,0,0,8.58,3.37c13.08,1.13,25.31-2.67,37.47-7,7-2.49,10.77-6.71,11.63-14.31.39-3.5,2.93-6.83,4.81-10,.91-1.55,2.55-2.67,4.73-4.84-2.12.73-3,1.11-4,1.34-12.38,3.13-24.47,7.77-37.64,6.67-7-.6-12.27-3.9-14.39-10.51C421.33,394.57,420.69,388.6,426.17,383.75ZM470,656.63c13.17,42.53,39.07,72.83,80.46,90.1-2.39-10.13-.49-21.23-7.65-29.29a150.52,150.52,0,0,0-23.6-21.75c-6.18-4.49-10.44-10-14.63-16-.91-1.29-1.91-3.08-3.21-3.44-8.52-2.4-11.67-9-13.53-16.48ZM828.9,1155.8l-16.26-28c-2.94,5-6.8,4.48-9.39,2.64l-9.5,4.71c-.6,2.24-2.33,4.86-6.72,3.19a1.44,1.44,0,0,0-1.34.28c-3.76,6.11-8,4.37-12.33.48-2.69,2.75-5.3,5-7.57,2.29-1.74,9.24-3.57,18.91-5.37,28.58a4.25,4.25,0,0,0,.06,1.88c2.66,9,10.53,13.27,19.81,11.57,15.21-2.79,26.18-11.91,35.66-23.18C819.5,1156,822.84,1153.08,828.9,1155.8ZM800.72,1010c-7.47,3.52-13.63,8.67-17.2,16.43-2.63,5.73-5.2,11.51-7.44,17.4a21.16,21.16,0,0,0-1.6,8.51c.59,9.12,7.7,14.26,16,10.85,8.54-3.5,17.39-7.26,24.56-12.89,12.59-9.89,25.69-18.25,41.11-22.75.13,0,.13-.49.16-.66C837.68,1022.26,817.58,1022.46,800.72,1010ZM786.79,428.37,786.7,430l3.75,1c14.31,3.94,28.62,7.79,39.49,19,2,2.1,4.92,3.4,7.52,4.87,21.8,12.39,45.61,16.31,70.23,15.75,14.82-.34,25-12.1,23.75-26.1-.27-3-.84-5.94-1-8.92-.4-6.67-4.49-10.21-11.26-13.35,0,5.42.05,10,0,14.62-.11,8.37-4.92,14.62-13.14,15.55a153.69,153.69,0,0,1-23.4.78c-14.63-.6-28.87-3.55-41.48-11.35-11-6.84-23.32-9.65-35.71-12.1C799.37,428.56,793,428.79,786.79,428.37ZM391.23,1042.19c-1.36-2.8-2.12-4.44-3-6-6.24-12-11.66-24.37-13.89-37.81-2.6-15.73-4.76-31.53-7.13-47.29-.35-2.33-.81-4.64-1.4-8-14.43,18.84-25.68,37.17-16.28,60.21l9.93,9.53,1.18-.56c-2-9,1.44-18.15.14-27.2l-2.17-.43-5.41,11-1.51-.56c1-2.7,1.52-5.75,3.15-8,1.21-1.67,3.86-2.3,5.86-3.39.8,2.18,2.3,4.37,2.28,6.54-.08,7.31-.68,14.6-1.12,21.9-.12,1.85-.38,3.69-.51,5-2.47-2.19-5.15-4-7-6.43s-3.31-4.82-6.75-3.65-3.56,4.16-3.63,7.36c-.11,4.8,1.43,10-3,14-.78.7-.56,2.48-.73,3.37,3.41-2.34,6.42-4.94,9.88-6.62s7.21-2.33,11.36-3.59C369.41,1029.62,376.37,1040.56,391.23,1042.19Zm-1-256.24-1.35-1.08c-2.22,3-4.39,6.11-6.68,9.1-1.29,1.71-2.5,3.67-4.21,4.85-11.36,7.77-17.39,19.14-22.28,31.54-8.21,20.82-6.69,42.18-3.13,63.38,1.39,8.26,6.06,16,9.23,23.92,2.59-15.91,4.35-31.25,6.09-46.6,1.52-13.37,3.48-26.72,4.38-40.13,1-14.3,3.93-27.57,13.67-38.65A59,59,0,0,0,390.24,786ZM382,379.49c-17,4.1-28.38,14.92-36.17,29.48-5,9.42-10.91,18.69-11.08,30.13-.07,4.87,1.33,8.65,5.17,11.12a44.88,44.88,0,0,0,11.18,5.23c7,2.06,14.16,3.61,21.31,5.1,4.23.88,8.57,1.23,12.87,1.82.14-.49.27-1,.41-1.46-2.47-1.56-4.87-3.26-7.44-4.63-8.37-4.45-13.71-11.58-15.17-20.57-2.75-16.85-3.41-33.62,10.33-47.06C376.33,385.77,379,382.64,382,379.49Zm364,818.94c.16.43.32.85.47,1.27-4.28,1.84-8.53,3.75-12.85,5.51-5.52,2.27-11.26,4.09-16.6,6.72-5.8,2.86-8,8-6.05,12.59a18,18,0,0,0,20.74,10.71c8.51-1.92,17-3.9,25.37-5.82,0-11.45.08-23.65-.09-35.84,0-1.71-1.15-3.43-1.88-5.09-2.08-4.68-4.22-9.34-6.82-15.08H737.16c-1.9,11.81,6.44,18.39,13.15,26.58ZM399.21,465.85l-1,1.72c7.4,6.77,14.7,13.65,22.28,20.21,1.44,1.25,4.62,2.37,5.89,1.64,9.34-5.38,23.33-4.06,26.75-18.16a6.59,6.59,0,0,1,1.89-2.89c7.46-7.1,8.84-16.21,8.78-26.13a6.91,6.91,0,0,0-2.37,0c-10.6,4.38-21.25,8.63-31.71,13.32C419.85,460,410.37,465.3,399.21,465.85Zm-5.86,727.82a90,90,0,0,1-9.35-.06c-4-.45-4.79,1.37-5.27,5-1.9,14.66-7.69,23-22,21.86a20.78,20.78,0,0,0-2.49.08c-3.73.15-5.69,2-6.18,5.79-1.13,8.94-5.08,13.4-14.06,15.08-8.78,1.64-17.85,4.36-26.48,3.5-10.08-1-13.3,4.18-16.23,11.47a8.47,8.47,0,0,0-.25,1.27c14.45,1.8,27.81-.4,39.5-9.64,10.76-8.51,22.7-13.64,36.7-13.37a52.78,52.78,0,0,0,11.41-1.14c5.84-1.19,12.62-2,14.41-8.92C395.73,1214.3,396.4,1203.73,393.35,1193.67Zm-34.42-42.55a10,10,0,0,1-.57-1.73c-.44-3.09-2.13-4.65-5.17-3.55-3.51,1.27-5.38,3.81-4.48,7.79.7,3.11,2.25,4.6,5.7,3.69,5.62-1.5,10.89-10.65,8.82-16-1.66-4.29-5.53-5.55-9.67-5.84-3.88-.27-3,3.2-3.78,5.31-.09.23-.51.34-.88.57l-1.27-2.43c-5.29,6.76-7.09,14.78-4.42,19.41,6.14,10.65,27.79,16.21,39,10-1.18-8.71-1.88-9.76-9.34-13.5-3.44-1.73-4.18-3.62-1.42-6.92,4.94-5.91,4.88-6.14-.18-12-2.1-2.44-3.71-4.63-2.23-8a6.25,6.25,0,0,0,0-2.92c-.62-5.58-1.27-11.14-1.94-17-.38,0-2,0-3.69,0-6.84-.23-10.08-6.15-6.17-11.83a22.08,22.08,0,0,1,6.6-5.88c3.77-2.34,4.74-5.17,3.16-9.06-3.55,4.35-7,8.61-10.48,12.83-4.41,5.34-8.06,10.46-6.67,18.4,1.23,7,.26,14.47.26,21.71,6.08-.1,11,.39,14,4.8,3.18,4.64,1.22,9.26-1.23,13.61a42.73,42.73,0,0,1-2.34,3.84c-2.21,3.15-7.77,5.14-10.55,3.49-3.87-2.3-4.33-6.18-3.49-10.11.88-4.19,6.25-7.53,10-6.3S360.8,1147.62,358.93,1151.12Zm77.93-907.94a24.3,24.3,0,0,1-.66,3.57c-4.36,12.7-7.71,25.9-13.52,37.91-4.17,8.63-11.41,15.86-17.72,23.35-5.14,6.11-11,11.62-16.4,17.5-3.74,4.07-6,8.9-5.48,14.54.75,7.83.15,15.4,5.41,22.93,6.3,9,12.57,16.95,23.89,17.55,17,.92,34-.17,50.11-6.53,7-2.75,13.68-6.24,20.51-9.39l-.43-1.77c-2.31.11-5.08-.57-6.86.46-16,9.3-33.57,12.48-51.61,13.69-8.45.57-14.61-3-19.12-10.88-4-6.95-5.31-14.24-6.49-21.76-1.7-10.86-.71-21.33,5.82-30.62,4.11-5.85,8.23-11.74,12.8-17.24,11.8-14.17,20.8-29.58,23.77-48.15C441.49,244.5,440.12,243.68,436.86,243.18Zm54,142.83a25.14,25.14,0,0,0-3.22-.47c-8.78-.17-17.25-1.26-24.27-7.37-.76-.66-2.46-.57-3.65-.37-8.63,1.49-17.23,3.23-25.88,4.63-4.79.78-9.76,5.92-9.83,10.74-.14,8.83,3.89,13.69,12.62,14.8,3.11.39,6.45.78,9.42.06,11.6-2.82,23.3-5.49,34.52-9.47C485.59,396.79,493,394.85,490.89,386ZM317.2,250.24c5.36-.45,10.85-1,16.36-1.37,6.93-.45,14.37.6,18.56-7.09.32-.58,1.4-.81,2.17-1.07,9.58-3.29,19.32-5.89,29.49-6.52C406,232.82,428.24,231.58,448,245c1.05.72,2.41,1.09,3.24,2,8.95,9.6,15.19,20.41,15.9,34,.68,13,1.91,25.88,2.87,38.5,4.57-11.81,7.91-24.3,3.2-37-3.84-10.39-9-20.27-13.52-30.41-4.36-9.8-11.56-15.7-22.26-17.9-12.17-2.49-23.69-7.91-36.49-7.61-15.68.36-31.19,1.56-46.38,6-9.23,2.71-9.51,2.25-13.8-5.91-.05-.1-.28-.1-1.26-.43-1,1.44-2.91,3-3.2,4.77-.91,5.59-4.56,8.14-9.3,10S318.73,246.21,317.2,250.24ZM569.7,668.45c10-1.26,19.9-1.9,29.47-3.86s19.52-3.8,28-8.2c15.63-8.11,30.41-17.8,47.7-22.41,1.49-.4,3.07-2.8,3.42-4.51.56-2.8.15-5.8.15-9.54-3.39,1.56-5.9,2.77-8.45,3.86-7.47,3.2-14.9,6.53-22.48,9.45a202.28,202.28,0,0,1-19.81,6.69c-9.25,2.5-18.67,4.32-28,6.71-1.33.34-2.65,2-3.31,3.42-3,6.34-6.09,12.07-14.91,10.83C576.06,660.11,571.27,661.83,569.7,668.45ZM782.61,1260l.32,1c-2.74,1.47-5.67,2.67-8.16,4.48-3.11,2.27-6.53,3.56-9.58,1.22-3.37-2.59-3.54-6.84-1.91-10.58,1.83-4.19.17-5.72-5.21-6.73.5,7.34.7,14.2,1.55,21,.34,2.74,1.44,6.07,3.39,7.77,3.52,3.06,7.93,5.1,12.43,7.83-.51-6.07-1-11.92-1.41-16.83h11.89l.19,1.25-8.82,1.77,11.45,12.49-1,1-10.22-9.58-1.14.33c1.17,14.14,2.35,28.28,3.55,42.65,9.06-4.09,10.66-6.06,10.44-14.86-.51-20-1.31-40-2-59.93a10.91,10.91,0,0,0-.59-2l-26.13,4.48,4.64,7.78c5.37-3.54,11.06-3.7,17.55-2.08-5.68,1.22-10.82,1.76-15.51,3.49-4.28,1.57-5.29,5.26-3.17,8.35,2.42,3.51,5.1,2.42,8.12.49A96.32,96.32,0,0,1,782.61,1260Zm-134-1004.83c6.07,12.56-1.69,23.81-3,36.13,1.29,1.19,3.54,2.6,4.89,4.6,6.54,9.72,15.59,15.18,27.09,16.83a13.17,13.17,0,0,1,4.31,1.21c6.08,3.22,10.9,1.48,15.65-3,4-3.75,3.33-10.33-2-12.32a14.66,14.66,0,0,0-6.84-.87c-14.85,1.94-29,.85-41.82-8.53,6.32-9.72,9-21,9.76-32.84l2.09.51c-2.28,10.43-4.56,20.86-7,32l6.1,2.68c6.66-12.13,4.88-24,1.93-36,5.51,12,5.52,24.34,1,37.69,12.95-11.43,13.93-23.11,4.18-35.91-2.16-2.83-4.11-4-7.88-3.39-2.36.39-5.14-1.06-7.59-2-3-1.19-5.89-2.75-8.82-4.15l-.86,1.24c6.17,4.47,7.25,10.5,6.08,17.44-1.21,7.14-2,14.35-3,21.52C644.05,276.93,653.38,267.25,648.57,255.17ZM347.86,880.66c-17.14,25.22-8.14,59.86,1.92,79.21C354.11,954,358.61,948.09,363,942c.89-1.25,1.91-3.07,1.63-4.37-1.33-6.31-2.33-12.86-4.85-18.73C354.43,906.57,347.94,894.69,347.86,880.66Zm35.63-508.49c-3.65-1.94-7.59-3.41-10.78-5.85a186.17,186.17,0,0,1-14.14-12.53c-5.54-5.21-12.27-5.58-19.06-4.36a9,9,0,0,0-5.69,4.92c-2.57,6.71-2.87,13.42,1.87,19.77,3.9,5.21,7.18,10.88,10.54,16.05,2.76-2.06,5.72-5.17,9.35-6.8C364.73,379.28,374.19,375.85,383.49,372.17Zm143,612.07a29.39,29.39,0,0,0-11.18,21.88c-.72,11.59,6.3,19.55,17.93,19.93,6.42.21,12.89-.92,19.32-1.62,6.26-.68,12.5-1.58,19-2.42-8.81-5.16-18-9.09-25.32-15.24C538.75,1000.47,533.1,992,526.45,984.24Zm303.7,235.28c6.59-3.56,13-7.31,19.58-10.5,8.66-4.17,15.23-10,17.65-19.61,1.06-4.18,1.81-8.82-2.12-11.44a10.34,10.34,0,0,0-12.45.66c-3,2.34-6.1,4.63-9.07,7-3.85,3.14-7.92,2.88-12.15,1-1-.43-1.88-.94-3.15-1.58-.55,6.13-1.72,11.79-1.39,17.36C827.4,1208.48,829.16,1214.4,830.15,1219.52ZM534.51,675.29c4.5-.23,8.78-.48,13.06-.67,6-.26,10.63-2.2,11.86-8.91.22-1.22,1.34-2.28,2-3.41l.54.33c-1.35,3.51-2.7,7-4.6,12,2.57-1.39,4.45-1.92,5.63-3.13a116.47,116.47,0,0,0,8.11-9.48c1.65-2.1,3.16-3.43,6.23-3.13,4.41.44,7.25-2.51,8.56-6.34,1-3,1.13-6.39,1.73-10.18-4.13,0-8-1-11.14.19-8.78,3.32-17.54,4.83-26.83,3.19-1.73-.31-3.56,0-6.84,0L548,648l-15.36,13.27c.2.79.55,2.19,1.24,5L552.64,658c-3.7,8.93-12.87,7.22-19.24,10.42C533.79,670.84,534.13,672.92,534.51,675.29Zm202.69,44.8c-2.08-8.65-3.73-17.29-6.27-25.66-3-9.89-6.82-19.47-15.51-26.17-9-6.92-17.8-14.09-26.44-21C693.59,666.31,718.79,713.54,737.2,720.09Zm-23.37,489.75c8.95-3.23,17.54-6.24,26.06-9.45,5-1.88,5.57-3.6,2.09-7.49a26.06,26.06,0,0,1-6.8-21.12c.93-8.77,1.87-17.53,2.7-26.3.36-3.89.46-7.8.7-12-3.36.63-6,1-8.54,1.67-.94.25-2.27,1.13-2.42,1.91-1.31,6.67-3,13.35-3.41,20.1-1,16.27-.55,32.72-8.79,47.64A26.62,26.62,0,0,0,713.83,1209.84Zm131.74,97.52c-7,5.34-14.12,7.28-22.21,4.73a15.27,15.27,0,0,0-4.85-1c-6.52.15-12.67,2.62-19.63,1.25-3.61-.7-8.79,2.54-12.14,5.33-9.24,7.72-19.3,8.23-30.73,5.3-.29,2.76-.59,5.62-.79,7.58,6.11,1.86,11.39,3.61,16.76,5a7.62,7.62,0,0,0,5.09-.36c7.36-4.1,14.31-9,21.88-12.65,9.16-4.39,17.66-2.12,23.79,5.15,2.24,2.66,12.27,4.4,13.85,1.82C840.68,1322.85,847.09,1316.92,845.57,1307.36ZM328.78,1103.29l-1.32-.19a31.54,31.54,0,0,1-1.07,5.62c-.74,1.93-1.61,4.24-3.17,5.33-3.45,2.42-16-1.39-18.4-4.93-.92-1.36-2.47-3-3.9-3.18-6.65-.86-11.83,3.75-12.2,10.41-.6,10.73,7.56,20.78,16.67,20.39,8.42-.35,16.83-.84,25.18-1.27C330,1125,329.38,1114.15,328.78,1103.29Zm129.67-621,1.53.56c2.59-1.63,5.27-3.15,7.76-4.92,4.4-3.13,9.22-5.89,12.89-9.74,6.95-7.29,9.11-17.1,12.65-26.25,3.14-8.09,6.86-16.39,12.22-23.09,6.46-8.09,14.75-14.77,22.56-21.71,5.09-4.52,5.51-5.26,1.17-12.52-10.3,11.25-20.7,21.93-30.25,33.33-5.06,6-7.56,14.44-13.16,19.71s-6.46,12.44-10.15,18.29c-4.32,6.87-9.41,13.26-14,20A50.07,50.07,0,0,0,458.45,482.27ZM221.13,1013.09c2.35-9.57,4.06-19.79,7.36-29.46,9.33-27.31,23-52.64,37-77.78,4.07-7.31,8.24-14.58,12.31-21.78-3.95-2.61-6.13-1.8-8,1.43-5.88,10-12.16,19.79-17.85,29.9-4.06,7.24-7.37,14.9-11.1,22.33-8.92,17.73-16.89,35.79-20.12,55.58C219.55,1000.24,219,1007.11,221.13,1013.09ZM434.45,368.35c-4.67-7-3.41-14.32-2.55-21.53a101.71,101.71,0,0,1,2.64-12.64c1-4.09-.76-8.8-4.37-10.7a6.94,6.94,0,0,0-9.34,2.65c-.88,1.41-1.88,2.74-2.68,4.2-4.54,8.28-9.51,16.43-9.79,26.28,0,1.35,0,3.56.77,3.95C416.84,364.55,424.08,370.2,434.45,368.35Zm34.27-21.42c-12.92-.39-24-4.43-32.39-15.15A214.13,214.13,0,0,0,433.11,360c-.24,6.43,3.25,9,9.77,8.6,2.15-.15,4.3-.34,6.43-.61C460.75,366.51,467.36,359.62,468.72,346.93ZM372,1191.6H393.1v-22.39c-17,6.42-32.9,7.55-46.51-3.51l-7.22,4.15c0,.2-.18,1.5.37,2.09,4.38,4.71,8.77,9.45,13.5,13.81,1.23,1.13,3.69,1.43,5.52,1.28a43.93,43.93,0,0,0,7.22-1.66c-.18-2.68-.8-4.93-.26-6.85.25-.86,3.76-1.89,4.16-1.43,1.81,2.07,3,4.64,4.46,7.05l16.2,2.72-.18,1.71-37,3.55,11.08,18.56ZM335.76,479.15c6.39,0,13.17.16,19.93,0,9.76-.3,19.51-1,29.28-1.23a33.11,33.11,0,0,1,10.12,1.47c4.93,1.5,9.66,3.61,14.47,5.46-3.94-5.94-7.9-11.45-13-15.61-3.15-2.58-7.89-3.54-12.08-4.48-5.14-1.14-10.46-1.51-15.7-2.19-1.58-.21-3.58-1-4.7-.38C354.34,467.8,344.74,473.71,335.76,479.15ZM266.05,853.47c1.37,0,2.18,0,3,0,4.45-.12,7.84,1.82,9.62,5.81,1.66,3.74-1.27,5.36-3.76,7.52-5.16,4.47-5.38,9.2-1.24,12.4,3.76,2.9,12.61,2.34,13.26-1.18a49.2,49.2,0,0,0,.33-13.82c-.19-1.85-2.34-3.67-3.93-5.14a46.48,46.48,0,0,0-6.09-4.5c-4.15-2.75-6.85-6.42-6.69-11.51.06-2.08,2-4.37,1.49-6.16-1.5-5.78,2-8.94,5.3-12.48a7.14,7.14,0,0,0,2.12-4.17c0-3.54-.55-7.09-1-11.55-2.1.53-5.29.35-6.26,1.73-5.11,7.26-9.73,14.87-14.34,22.47-1,1.62-1.26,3.67-2,6C263.74,840.67,266.23,846,266.05,853.47Zm57.41-48.35c-2.56,1.84-4.36,2.56-5.23,3.88-2.24,3.4-4.75,6.35-9.17,5.52-5.42-1-7.71-5.3-9.07-10.16-1.17-4.18-1.31-8.14,2.12-11.57a32.51,32.51,0,0,0,3.19-4.44c-2.76-1.81-5.55-5.08-8.27-5s-6.5,2.88-7.77,5.49c-1.79,3.68-2.69,8.55,1.66,11.81,2.63,2,2.61,4,1.89,7-.55,2.22-.64,5.31.51,7,3.71,5.57,7.41,11.74,15.86,10.27a7.82,7.82,0,0,1,2.35.34c-.07,4.33,2.44,6.13,6.05,6.48,3.84.38,5.59-2.4,5.77-5.51C323.71,819.78,323.46,813.31,323.46,805.12Zm158-172.27c.63,2.79,1.69,5.09,1.53,7.29-.48,6.22,1.08,10.07,8.2,10.8,4,.4,5.16,4,2.5,6.31-3.39,2.93-2.35,5.42-.75,8.75,2.52,5.25,8.69,5.68,11.76,9.21,5.48,6.3,11.61,5.36,18.19,4.4,5.4-.79,8.4-5.2,7.78-11.28-5.28,0-10.58-.06-15.87,0a53.27,53.27,0,0,0-5.61.66c.4,1.53.79,3.07,1.32,5.08l-4.27-2.37c-8.54-4.67-10.26-8.31-8.59-17.86a8.69,8.69,0,0,0-.25-2.94c-.81-4.35-1.67-8.69-2.52-13l1.45-.43q2.06,6.71,4.09,13.39l1-.27q-1.27-6.54-2.56-13.1l1-.4c1.11,3,2.23,6.07,3.84,10.45.63-4.19,1-6.86,1.53-10.23ZM328.63,367.48c-1.58,16.6-3.57,32.21-15.69,44.64,7.71,1.66,14.31.95,19.93-4.15,2.33-2.11,4.22-4.74,6.64-6.73,4.34-3.58,4.62-7.92,2.54-12.53a74.12,74.12,0,0,0-5.51-9.41C334.24,375.69,331.79,372.18,328.63,367.48Zm66.9,812.12,2,1.48c9.16-6.49,18.5-12.75,27.41-19.56,4.32-3.3,3.72-8.28-1.27-10.28-4.62-1.84-9.78-2.5-14.76-3.22-3.44-.49-4.72,1.88-5.45,5.06-.91,4-2.54,7.8-3.72,11.72C398.26,1169.71,396.93,1174.66,395.53,1179.6ZM489.8,426.18c10.32-16.56,24.37-29.74,38.5-42.87a4,4,0,0,0,1.07-3c-.58-3.67-1.46-7.3-2.36-11.54-4,1.83-7.59,2.93-10.57,4.92-7,4.7-12.55,10.44-11.66,20,.48,5.22-2.3,9.25-5.61,12.89A36.49,36.49,0,0,0,489.8,426.18ZM398.12,1209c-.42,4.39-.77,8-1.11,11.63-.75,7.93-4.39,12.78-12,14.62-5.46,1.32-11.13,2.52-16.7,2.47-14.07-.12-25.74,5.29-36.63,13.61-7.92,6-16.87,10-27.11,10.15-2.44,0-4.87.23-9,.43,2.25,1.95,3.3,3.64,4.44,3.7,3.56.19,7.4.52,10.68-.57,12-4,23.63-9,34-16.49,7.7-5.59,15.81-9.33,26-7,7.47,1.69,14.94-.07,21.7-3.83C402.09,1232.31,405.47,1217.22,398.12,1209Zm1.79-877.3c9.48-12.73,18.07-26,28.44-37.7,10.53-11.88,14.77-26.07,19.2-40.5,1.32-4.31.05-6.55-4.25-7.2-.38.46-.69.68-.78,1a12.76,12.76,0,0,0-.42,2c-2,12.26-5.76,23.82-13.33,33.93s-14.87,20-22.08,30.15C402.79,318.76,399.84,324.76,399.91,331.67Zm544,484.69c-2.48-21-18.83-42.08-31-40.6,7.25,14.88,20.07,27.31,21.24,45.36Zm-181.12,464.8c-.42.78-.73,1.07-.7,1.33,1.38,12.51,2.72,25,4.34,37.52.13,1,2.26,2.26,3.51,2.33,1.91.09,3.85-.85,5.81-1.18,2.63-.44,3.52-1.57,3-4.44-1-6-2.3-12.19-2.15-18.27C776.91,1288.28,769.21,1285.6,762.82,1281.16ZM625.62,413.91l1.75-.4c-.17-1.59-.28-3.18-.52-4.76-1.49-9.85-3.09-19.69-4.5-29.56-2.85-20-.78-39.8,2.38-59.59,1.09-6.82,1.2-13.8,1.76-20.7l-2-.27c-.87,3.75-2,7.47-2.56,11.27-1,6.56-1.55,13.19-2.48,19.76-2.61,18.34-4.46,36.76-1.24,55.14C620,394.63,623.11,404.21,625.62,413.91ZM266,1236.59c-.6-8.56-2.06-17-1.57-25.36.62-10.59-7.13-15.08-13-22.15,1.67,16.41,3.24,31.83,4.84,47.51ZM694.45,403.21c-.32,6.52-.75,13.58-1,20.65a153.66,153.66,0,0,0-.07,15.77c.31,4.47,2.9,6.91,7.79,6,4-.77,8.12-1.42,11.21-1.95C706.37,430.07,700.35,416.52,694.45,403.21Zm95.88,833.73c.58,15.88,1.13,31,1.68,46.2a45.07,45.07,0,0,0,10-8.16c1.23-1.25,3.12-2.69,3.18-4.11.32-7.37.15-14.76.15-22.56-4.8,3.57-7.94,3.63-10.38.47-2.06-2.67-1.83-5.65.72-7.54,3.94-2.92,6.55.44,9.47,3v-7.35Zm-544.68.55c8.32.6,8.83.08,8.13-8.17-.57-6.78-1-13.57-1.54-20.35-.15-1.78-.15-4-1.16-5.22-3.58-4.49-7.57-8.65-11.4-12.94l-1.23,1.2C240.82,1207,243.2,1222,245.65,1237.49Zm82.18-1.54c7.63-1.19,10.31-4.47,9.28-10.82a38.66,38.66,0,0,0-9.95-20.27c-5.67-6.16-9.09-6.18-15.77-.66C321.36,1212.28,327.85,1222.26,327.83,1236Zm-10.8-401c-2.6-2.45-4.78-4.55-7-6.6-.66-.61-1.54-1.67-2.15-1.56-6,1-9.37-2.77-13.1-6.41-4-3.93-6.21-8.08-4.39-13.78a5.12,5.12,0,0,0-.16-3.5c-1.77-3.54-3.81-7-5.65-10.23-2.33,3.63-2.18,8.58-1.93,13.61.19,3.76.8,7.71-.09,11.25s.1,5.52,3.05,6.5c7.24,2.39,13.95,5.22,19.48,11C309.1,839.41,315.18,838.38,317,834.92Zm25.12,148.35c1.68-5,3.45-9.56,4.73-14.28.65-2.39,1.12-5.23.45-7.52-2.22-7.61-5-15.05-7.53-22.58-.82-2.45-1.5-4.95-2.46-8.16C327.12,950.22,337.88,966.47,342.15,983.27Zm153.36-536.8c3.29-3.9,6.55-7.82,9.86-11.7,9.13-10.69,18.19-21.46,27.51-32,2-2.23,3.08-3.66.35-5.77C512.09,409.55,497.92,427.48,495.51,446.47ZM501.57,336c-.77-2-1.5-4.32-2.6-6.48-.9-1.76-2.19-4.63-3.42-4.69-4.15-.21-9.43-.83-12.32,1.33-6.05,4.52-1.85,19.74,5.53,21.76a5.42,5.42,0,0,0,4.52-1.4C496.26,343.18,498.82,339.5,501.57,336ZM361.46,1211.89c-1-2.83-1.7-5.22-2.76-7.42-3.45-7.16-7.7-13.65-15.38-17-5.17-2.25-10.09-1-12,3,9.28,3.41,13.65,11.34,17.26,19.62,1.46,3.36,3.21,4.27,6.36,3.56C357,1213.17,359,1212.55,361.46,1211.89Zm385-768.6,1.58-.1a125.54,125.54,0,0,0,.13,12.58,8.74,8.74,0,0,0,2.89,5.41,5.41,5.41,0,0,0,5,.15c5.39-3.59,10.49-7.62,16.18-11.86L762,444.18c.5,3.7.85,6.36,1.2,9l-1.31.23a46.78,46.78,0,0,0-1.25-6.53c-.44-1.34-1.47-3.24-2.55-3.48-8.07-1.84-16.22-2.51-23.81-.73-.31,8.87,6.66,7.72,11.69,9.16ZM608.85,639.56l.35,1.78c3-.3,6.25-.09,9.1-1,8-2.55,16-5.38,23.8-8.42q16.26-6.3,32.31-13.1c4.65-2,4.68-2.55,3.55-6.72-11.26,4.77-22.6,9.81-34.11,14.38S620.52,635.23,608.85,639.56ZM829,1311.09c2-11.47,3.91-22.45,5.82-33.43-4.61,2.35-7.66,5.29-11.25,7.21-3,1.58-4,3.71-4.22,6.62-.53,5.57-1,11.16-1.53,16.83ZM505.66,670.7c1.72-5.91,2.86-9.86,4.07-14l-1.35-1.2.46-.84,4.25,1.36c-1.66,3.22-3.08,5.94-5.09,9.83h24.51c-1.59-2.69-2.34-5.49-3.5-5.67-6.7-1-10.21-9.2-18.09-7.69-2.26.44-4.89-1.07-8-1.85-1.49,3.24-4.55,6.78-4.18,9.93S502.8,666.76,505.66,670.7Zm310,637.56c1.1-11.13,2.2-22.36,3.3-33.59a54,54,0,0,0-10.74,7.7c-.83.73-2,1.7-2.06,2.58-.16,8.52-.09,17-.09,25.79Zm-494.35-109.9c11.22,5.21,15.52,15.55,19.27,27.24,1.65-5.55.4-11.65,8.45-12.28-2.74-4.78-4.84-9.11-7.56-13C335.25,1191.39,330.21,1189.84,321.31,1198.36ZM492.17,363.74c-10.1,2.15-18.21,8.43-27.88,12.19,8,7.75,17.48,7,26.18,7.67C491,377.19,491.54,371.17,492.17,363.74ZM303.52,1208.89c2.77,4.53,5.89,8.68,8,13.29s3.23,9.92,4.92,15.37l8.7-.85c-.43-13.16-4.7-23.94-15.39-31.68Zm-.27,32.32-.1,1a11.29,11.29,0,0,0,2.8.34c9.06-1.1,18.13-2.08,27.14-3.48,8.56-1.32,11.77-4.66,13.23-13.21.64-3.78,2.58-6.05,6.39-6.54a60.87,60.87,0,0,1,6.47-.52c11.66-.26,20.3-13,15.91-26.08-2.41,4.68-5.19,8.06-5.87,11.82-1.33,7.37-6.37,9.61-12.45,11a27.73,27.73,0,0,1-7.92.89c-3.4-.25-4.25,1.42-4.75,4.25-2.51,14.16-6.1,17.47-20.61,18.9C316.76,1240.28,310,1240.69,303.25,1241.21ZM824.31,658.42c-.09,1.6-.24,2.59-.19,3.57.4,8.6-.66,16.53-5.53,24.26-7.53,11.94-7.33,24.73-.69,37.29a37.39,37.39,0,0,0-.17-4.24c-.11-7.22-2.78-14.71,1.49-21.52,5.69-9,8.58-19,10.77-29.35C831.07,663.28,829.2,660.65,824.31,658.42ZM340.76,1120.74c-.93,10.9-1.8,21.17-2.67,31.44a143.34,143.34,0,0,0,7.46-12.87c.78-1.44,2.49-2.79,2.49-4.18,0-10.65-.31-21.3-.53-32l-1.95-.07c-4.25,5.24-10.33,10.22-1.89,17.45Zm462.63,188.73v-32.25c-3.22,2.93-6.64,6-10,9.15a3.31,3.31,0,0,0-.86,2.17c-.06,7.4,0,14.8,0,22.42ZM469.71,632.68c-.72,4.62-1.56,8.85-2,13.13-.34,3.52,0,6.94,4.54,7.88,4.35.91,8.68,1.95,13.74,3.09-.77-1.46-1.11-2.17-1.5-2.85-1.89-3.24-4-6-2.83-10.54.78-2.93-.4-7.23-2.26-9.79-2-2.71-5.78-4.08-8.79-6,4.33,5.21,8.15,10.72,6.94,18.71C474.51,641.64,477.5,634.18,469.71,632.68ZM267,1194.91l-1.63.25c1,13.95,2,27.91,3.25,41.84.13,1.43,2.29,2.67,3.5,4l1.28-.57c.21-2.93.58-5.85.6-8.78.05-6.48-.83-13.06.05-19.41C275.05,1204.61,270.66,1200.08,267,1194.91ZM506.77,636.79c-.84,5,4.77,14.62,7.36,14.92,7.88.9,16-4.64,17-12.86ZM299.06,1210.88c.66,9.84,1.23,18.27,1.79,26.77h12.29c.58-10.26-3.54-18.33-9.71-25.51C302.53,1211.1,300.29,1211.21,299.06,1210.88Zm529,9a18.54,18.54,0,0,0-2.71,1.74c-9.7,9.86-21.58,9.73-34.24,8.46-9.91-1-20-.2-30.78-.2,2.44,5,5.86,4.87,9.14,4.87,10,0,20-.81,29.9.12,11.67,1.1,19-6.67,27.69-11.67C827.67,1222.87,827.64,1221.49,828.1,1219.87ZM308.58,843.23c-5.41-3.61-10.42-7.09-15.61-10.26-.69-.42-3.21.49-3.38,1.17-1,4.13-2.43,8.4-2.21,12.55.27,5,6.8,8.26,10.51,5.66S304.93,846.39,308.58,843.23ZM840.93,670a5.62,5.62,0,0,0-.23,1.29c1.7,13.07.32,25.37-7.74,36.49-7.34,10.13-5.59,21.87-4.54,33.3,1-3.6.87-7.28,1-11,.32-6.82.45-13.92,5.51-19.2,9.09-9.49,10.87-21.22,11.48-33.54C846.66,673.26,845.49,670.73,840.93,670Zm-13.37,511.06c1-6.1,2.05-12,2.9-17.92.5-3.51-1.76-5.56-4.77-5.7a8.57,8.57,0,0,0-6.17,2.44C814.61,1165.71,815.74,1176.86,827.56,1181.09Zm-46.48-98.22c-18.68-2.8-35.69,4-48.68,18.46ZM726.59,324.23a46.66,46.66,0,0,0-1.48,6.21c-.45,3.58,5.8,9.59,8.64,8.07,5.81-3.11,11.24-6.94,17.68-11Zm132-152.58c8.11-3.63,8.51-12.11,5.69-17.14-2-3.51-6.19-4.69-9.21-2s-5.43,6-8.72,9.66C853.52,162.51,857,165.81,858.62,171.65ZM417.07,674.7c-.63.53-1.55.93-1.79,1.57-2.88,7.73-5.85,15.43-8.31,23.29-.48,1.56,1.1,3.77,1.94,6.34C418,696.36,424.21,687.37,417.07,674.7ZM243.23,1248.17c5.25,8.95,26,14.77,39.53,11.67-3.56-2.34-6.35-5.63-9.39-5.88-8.27-.69-16.45-.62-23.71-5.66C248.38,1247.4,245.94,1248.17,243.23,1248.17ZM400,1149.85l-9.12-10.27c-1.14-.82-3.66-.19-6-.54-4.93-.73-6.36,1.85-6.06,5.93a26.75,26.75,0,0,0,1.43,5.68Zm40.46-922.79c2.4-10.89.54-19.24-6.09-26.27a7.1,7.1,0,0,0-4.78-1.94,84.58,84.58,0,0,0-10,1.29,5.93,5.93,0,0,0,.52,1.07,2.15,2.15,0,0,0,.78.6c9.37,3.69,14.5,10.4,15.28,20.59C436.27,223.79,438.5,225,440.45,227.06ZM833.46,1239c-1-3.23-1.89-6.25-3-9.18-1.67-4.49-3.8-4.92-7.87-2.24s-8.47,5.07-12.67,7.67a13.22,13.22,0,0,0-2.18,2.18c1,.52,2,1.48,3.08,1.5C818.14,1239,825.44,1239,833.46,1239ZM655,222c5.71-.44,10.92-2.6,12.23,4.12,1,5-1.12,8.07-6.31,8.62.31,5.11-.78,8.73-6.3,10-1.37.31-2.18,3.11-3.25,4.76,1.47.7,2.94,2,4.41,2,4.52,0,8.59-3.78,9.64-8,1.35-5.44,2.86-10.84,4.44-16.22,1.17-4-.32-8.34-4.07-9.55S658.44,217.41,655,222ZM600.2,189.66c-3.59-3.73-7.29-7.36-10.74-11.21-2.84-3.18-7.45-4-9.36-1-2.12,3.26-3.74,6.86-5.75,10.61Zm78,447c-16.38,2.62-30.3,10.59-44,19.06C650.16,652.16,665.64,647.63,678.23,636.61ZM354,1094c3.71-4.57,7.47-9.11,11.08-13.76a3.05,3.05,0,0,0,.37-2.71c-2.19-3.81-4.59-7.49-7.53-12.17C352.83,1075.23,352.68,1084.31,354,1094ZM759,608.82c1.35,8.23,8.92,8.2,13.35,12.49l4.4-6L761.3,595.13C759,607.32,759,607.4,770.54,609.6l-6.87,5.26-.75-.82,3.23-4.21ZM475.93,449.14c-8.46,9.35-20.52,15.94-23.42,29.65C465,472.67,470.44,460.89,475.93,449.14Zm332.16,806.2,26.1,3.82c1.08-5.15.76-6.73-3.2-7.44-7.42-1.35-14.93-2.19-22.9-3.32Zm63.58-475.63c-10,4.66-19.91,8.71-31.34.14,3,6.56,5.23,11.16,11.86,12.09C862.18,793.34,867.62,788,871.67,779.71ZM380,1113.94c8.39-2.32,18.44,4.49,26-5.44-7.39-3.1-14.32-4.28-21.63-1.87C381.06,1107.71,379.26,1109.53,380,1113.94Zm369.55,29.91c3.58.07,7-4.13,6.9-8.7-.1-3.78-1.81-6.36-5.94-6.52-4.45-.18-8.16,3.79-8.3,8.78C742.13,1141,745.34,1143.77,749.58,1143.85ZM577.71,308.41c-3.24,3.22-2.88,7.9-.44,7.62,4.6-.51,3.85,3,4.51,4.84a53.19,53.19,0,0,1,2.19,10.7c1.37,9.75,2.6,19.51,3.89,29.27C589.23,342.67,590.89,324.43,577.71,308.41ZM717.84,439.83l-1.19,1.11a126.92,126.92,0,0,1,.37,41.31c2.32-3.88,4.83-7.89,5.06-12a197.77,197.77,0,0,0-.76-25.28C721.19,443.17,719.05,441.53,717.84,439.83ZM659,456.61c1.34-1.59,3.21-2.9,3.7-4.61.79-2.7,1.79-6.38.58-8.31s-5-2.74-7.71-2.78c-3.06-.05-6.14,1.31-9.36,2.09Zm149.07,789.5,26.18,3.17c-1-2.4,2.44-7.22-2.66-7.72-7.68-.75-15.5-.19-23.52-.19Zm-20.62-6.47c.13-.52.25-1,.38-1.57-9-4.27-19.46,2.51-28.79-3.55-.25,4.12-.44,7.33-.62,10.24ZM449,372.43c0-.77,0-1.53,0-2.3-14.94,2.46-29.32,1.33-42.63-6.67,3.33,7.23,7.29,11.19,12.79,11.09C429.11,374.38,439.05,373.19,449,372.43ZM747.17,620.29l9.62,4.19c6.24-5.17,2.76-10,.93-14.75l-8.54-2C748.52,611.85,747.88,615.87,747.17,620.29Zm-444,176.81c-1.62,3.27-1.62,3.27,2.3,10.83,2.73,5.27,6.66,5.6,10.36.85,1.7-2.18,2.11-10.85.44-13-.3-.4-1.46-.15-1-.12-1.73,2.53-2.6,5.3-4.26,5.92C307.23,803,304.81,800.33,303.15,797.1Zm456.12,421.8c-.56,9.93-.14,12.39,3.14,10.85,1.17-3.75,1.27-6.89,2.87-8.23,1.23-1,4.36.18,6.64.4l-2.51,6.73,8.64-1.49c-2-5.28,2.78-5.33,5.15-8.26Zm-374.71-66.14-.93,1.33,12.4,13.38,6.05-14.71Zm55.75-527.58c1.59-1.14,3.66-1.91,4.45-3.38,1.13-2.1,1.32-4.71,1.91-7.1A12.19,12.19,0,0,0,438.62,600C439.15,607.88,439.68,615.85,440.31,625.18Zm390.28,685.28c2.88,0,5.91.86,7.86-.23,2.15-1.2,5.15-5.25,4.6-6.19-2.22-3.75-5.67-6.77-9.18-10.64C832.64,1299.8,831.68,1304.77,830.59,1310.46Zm-553.85-59.85,1.13-.59a21.39,21.39,0,0,0-2.32-4.11,14.27,14.27,0,0,0-3.82-2.75c-4.82-2.63-9.37-6.13-15.49-4.56-4.48,1.14-9.06,1.91-13.55,3-3.78.92-3.86,2.88-1.41,5.5C252,1239.57,266.7,1241.1,276.74,1250.61ZM350.49,1094c.86-7.26,2.13-18,3.52-29.66-1.38.56-3.94.81-5,2.2-2,2.63-3.19,5.92-3.95,7.44C347.35,1082.52,349.39,1090,350.49,1094ZM241.42,859.38l2.46.35c.45-3.33.68-6.71,1.42-10,1.13-5,5.9-7.53,9.07-4.83a86.94,86.94,0,0,1,6.12,6.41l-1.12,2.32.83.94c.95-.58,2.44-.94,2.78-1.78,2.13-5.08-.83-9.43-9.91-12.37-2.09-.68-6.88,2-8,4.39C242.91,849.23,242.53,854.48,241.42,859.38ZM625.86,419.64A155.94,155.94,0,0,1,615,352.49C612,376,613.89,398.63,625.86,419.64Zm-236.2,707.42c-2.54-.16-5.08-.73-7.45-.31-1.69.3-4.41,1.92-4.43,3,0,2.68-.49,6.51,3.88,6.84,3.21.23,6.45,0,9.77,0C390.79,1133.19,390.29,1130.43,389.66,1127.06Zm-103-291.68H274.71c-.73,3-1.4,5.81-2.28,9.43l12.35.82C285.45,841.94,286,839.05,286.64,835.38ZM638.29,473.2c-4.19-1.55-7.66-3.23-11.32-4.08-5.2-1.2-10.63-3.87-16.79,1,3.3,1,5.75,1.62,8.1,2.5,3.07,1.15,6.06,3.5,9.1,3.52C631,476.18,634.6,474.28,638.29,473.2ZM613.91,321c-8.07,14.19-2.79,29.3-3.74,44l1.23.08Q612.66,343.07,613.91,321ZM380.87,1043l-16.27-14.23c-1.05,7.59.75,10.86,9,17.08ZM520.4,327.76l-24,20.92C504.1,350.43,516.8,340.35,520.4,327.76ZM462.07,615.33c0,6.87-.32,12.21.1,17.48.32,3.85-1.87,8.8,3.88,11.37.39-3.75.72-7.19,1.13-10.62.32-2.8,1.63-5.87.88-8.33C467.09,622,464.53,619.23,462.07,615.33Zm-123.7,475.14c.24,2.25.58,5.35.86,8l7.7,2.5c1-6.17,1.56-11.88-.65-17.38Zm315-848.59c5.42-.41,5.91-3.61,4.88-7.75,1.74-.89,3.79-1.34,4.83-2.62a7.69,7.69,0,0,0,1.54-5.23c-.11-1.07-2.13-2.73-3.26-2.7-1.72,0-4.61,1-4.92,2.11C655.08,230.81,654.42,236.13,653.41,241.88ZM283.25,851.19c0,5.46,2.78,8.26,7.15,8.75,1.47.17,3.23-2.14,4.29-2.91l-11.27-9.48-9.16.45C276.76,851.28,278.5,854.56,283.25,851.19Zm479.43,452.86-4.64,6.11-4.93-4.32c1.54,4.42,3.46,7.48,3.53,10.59.14,5.94,3.68,5.35,7.94,5.32C764,1316.07,763.4,1310.79,762.68,1304.05ZM584.91,660.33c2.22-1.47,4.93-2.34,6-4.17a84.13,84.13,0,0,0,5.67-12.65c.2-.52-1-2.2-1.69-2.34-2.89-.54-5,.18-5.69,3.7C588.25,649.61,586.65,654.22,584.91,660.33ZM745,603.9l12.59,4.9c.7-5.2,1.35-10,2.18-16.11ZM370.21,1152.11c9.6,1.22,13.16,7.62,14.57,15.67l7.31-.7-17.28-20.65Zm28.5-35.53H379c4.08,1.83,3.15,9.76,8.68,8C391.45,1123.43,394.43,1119.82,398.71,1116.58ZM596.16,669.22c-10.89-2.29-29.06,1.51-31.46,6.6Zm-266.45,93c-4.23,3.19-4.95,5.67-1.9,7.27,3.35,1.74,6.75,3.36,8.9,4.42l1.45,6.26,6.52-5.45c-4.05-2.07-7.15-3.05-9.43-5S331.67,764.93,329.71,762.19Zm19.71-546.36c13,3.52,25.58-1.93,38.43-1.75C374.94,212.86,362.06,212.14,349.42,215.83Zm271.31,93.95c-5.05,6.28-7.15,27.29-4.69,36.91C617.67,333.9,619.2,321.84,620.73,309.78ZM510.33,683.33l-.94,1.42,14.55,12.08C522,683.88,521.93,683.83,510.33,683.33ZM699.53,478c1.79,4.82,2.5,9.4,7.62,9.08,4.75-.3,4.4-4.69,5.31-8.32Zm136,805.47c-.49,3-1,5.84-1.32,8.08,3.75,3.57,7.16,6.79,10.62,10.08C845.35,1295.91,841,1287.33,835.54,1283.42ZM633.33,433.66c0,5.1,17,21.63,23.8,23ZM289.11,833.2c-2.63-3-4.42-5.33-6.49-7.33a3.06,3.06,0,0,0-3-.24c-2.2,2-4.12,4.31-6.14,6.5l.86,1.07ZM470.5,353.72c-3.37,4.85-6.68,9.6-10.8,15.54l15.17-7.54Zm322,875.13,3.15-9h-8.84c-1,2.56-1.91,5-2.92,7.68ZM610.75,388.68c-2.37,14.21,1.8,25.36,10.76,30.33-2.16-4.3-5-8.83-6.78-13.76C612.88,400,612.08,394.43,610.75,388.68ZM273,1251.11c-5.68-6.06-12.86-5.77-20.58-5.36C258.1,1253.43,266.21,1249.56,273,1251.11ZM315.73,790.7a18.63,18.63,0,0,0-4.28-.78c-1.46.06-3.68.28-4.19,1.19-1,1.86-2.07,4.69-1.31,6.24.63,1.28,5.1,2.36,5.66,1.69C313.48,796.81,314.34,793.74,315.73,790.7Zm-51,70.91,1.1,1.76a69.71,69.71,0,0,0,9-.6c.61-.11,1.43-3.39,1.11-3.59-2.25-1.45-4.86-3.46-7.17-3.27C267.32,856,266.1,859.59,264.75,861.61Zm493.1,446c5.22-6.63,5.48-8.37,3-16.09-1,1.82-1.87,4.38-3.52,6.27C752.83,1302.92,752.7,1302.81,757.85,1307.64ZM334.32,775.16a21.53,21.53,0,0,0-3-2.06,30.28,30.28,0,0,0-4.22-1.41c.25,1.71,0,3.77.87,5.06a100.49,100.49,0,0,0,7.1,8.46l1.47-1.57Zm188.51-125c-.41,6.25,4.32,6.88,7.88,7.21,2.38.23,5-2.13,7.53-3.34l-.75-.94Zm244.46,534.53c-3.42-6.79-9.42-5.14-14.83-5.65C753.66,1185.52,753.66,1185.52,767.29,1184.66Zm59.67.54-10.62-10.69c-2.86,2.49-2.86,2.49,3.72,11.43Zm-493.26-50c3-5,6.61-8.82,3.88-14.4C331,1120.64,330.4,1122.5,333.7,1135.24Zm446.61-5.68c-2.44,3.16-4.77,4.89-4.9,6.78-.09,1.37,2.72,3,4.23,4.43,1.46-1.5,3.8-2.85,4.12-4.56C784,1134.68,782.07,1132.74,780.31,1129.56ZM286,826.38c4.06,2.89,8.08,5.82,12.18,8.66,7.74,5.37,9.71,6.08,13.38,5-3-1.64-6.44-2.76-8.81-5A34.39,34.39,0,0,0,286,826.38Zm24.22-38.51c3.4-.18,7.32,3.65,9.51-1.15.49-1.09-1.77-4.7-3.4-5.25C311.35,779.79,311.88,785,310.25,787.87ZM630.79,467.81c8.68,3.34,15.73-.2,23.67-5.6ZM862.87,142.46l1.61-.09,9.65,9.08c-.06-1.12.56-4.95-2.47-7.24C869.51,142.59,865.85,143,862.87,142.46Zm-541,1042,5.36-4.81c-1.55-1.36-3.09-3.8-4.64-3.8s-3.38,2.25-5.07,3.53C318.72,1180.76,319.92,1182.16,321.87,1184.45Zm208.41-536.6.82,1.68a31.68,31.68,0,0,0,5.32.17,44.63,44.63,0,0,0,5.82-1.46c-.32-1-.41-2.84-1-3-2-.63-4.36-1.28-6.32-.83C533.2,644.78,531.82,646.64,530.28,647.85Zm-140.69-276,.75-1.18c-1.87-2-3.44-4.55-5.72-5.83-1.61-.91-4.22.17-6.32-.11a31.31,31.31,0,0,1-5.49-1.77l-.61,1.64Zm404.18,759.52c-2-2-3.22-4.05-4.73-4.3-1-.17-3.74,2.58-3.51,3.41.63,2.3,2.42,4.28,3.75,6.38Zm10.91,114.15c-2.82-1.73-4.51-3.28-6.44-3.7-.74-.16-3.14,3-2.9,3.35a10.63,10.63,0,0,0,4.59,4C800.72,1249.47,802.38,1247.39,804.68,1245.56Zm-38.2-114.16-1.92.8,2.94,8.75,2.12,0c.92-1.94,3-4.44,2.45-5.69C771.26,1133.46,768.44,1132.63,766.48,1131.4Zm-395.07-78.88c-2.14-1.79-3.6-3.93-4.79-3.79-1.69.19-3.19,2.07-4.76,3.23,1.68,1.22,3.23,2.83,5.12,3.47C367.79,1055.71,369.29,1054,371.41,1052.52Zm161.2-740.78-2-1.48L521,323.06l2.19,1.63ZM806.15,1131.6c2.07-2.42,4.22-4.08,3.94-4.78-.7-1.8-2.49-3.18-3.84-4.73-1,1.25-2.81,2.46-2.9,3.77S804.72,1128.86,806.15,1131.6Zm62.2-974c2.51-2.82,1.75-6.35-2.38-9.4-2-1.46-4.18-3.3-5.26-.48C863.53,151.37,865.86,154.4,868.35,157.61ZM335.56,1086.23l1.12,1.8c1.78-.7,4.42-.92,5.15-2.22,1.26-2.23,1.33-5.13,1.89-7.75l-1.84-.66Zm-5.65,84.59,5.7,6.18,1.32-.41q-.85-5.5-1.69-11l-1.56,0C332.46,1167.31,331.23,1169,329.91,1170.82ZM572.2,193.87l20.3-1.81C576.53,189.13,573.88,189.39,572.2,193.87Zm-230.48,565c0,1.55-.42,3.55.06,3.8,3.91,2,7.8,4.65,13.45,2.57Zm-14,35.24.55-.74-4.8-10.7-1.13.39c-.28,2.35-.55,4.69-.8,6.83Zm-53.82,10.81,1,1.44,4.71.53c.43-3.46.82-6.58,1.2-9.7l-.79-.45Zm80.37-457.76c-5.28-5.21-12.84-5.51-15.83-1.34Zm-44.15,843.26,2.44-1.44,3.45-3.23c-1.22-1.07-2.54-3.1-3.64-3-1.35.13-3.13,1.86-3.59,3.27C308.4,1187.24,309.62,1189,310.13,1190.44Zm441.51-15.18.68,1.32,9.41,1-3.7-6.43Zm-463.19,85.66-8.11-10.75C279.1,1254.12,284.13,1260.72,288.45,1260.92Zm90-215.61-3,6c1.38.38,3.08,1.46,4.09,1C382.64,1050.84,381.65,1048.47,378.43,1045.31Zm395.11-562-1.15-.45c-.21,2.67-.41,5.33-.62,8l-1,0L769.35,483l-.61.09v9.45h4.8ZM525.75,333l-8.63,10.19,1,.86C520.9,341.08,526.14,340.22,525.75,333Zm90.61,85.16c3.57,4.73,7,9.56,12.12,12.61ZM325.81,799.94l-7.67-3.39,2.84,9.29Zm13.07,332.18-2.2-.45q-1.15,7.23-2.3,14.44l1.29.22Zm513-750.61-1.26,1.38,6.65,5.35C858.54,382.47,854.76,382.48,851.85,381.51ZM326,797.68l.9-1.15-7.55-5.76C318.78,797.11,323.09,796.49,326,797.68ZM392.3,1045.9l-1.7-1.46c-2.46.17-4.94.51-4.42,4,.13.84,1.66,1.48,2.55,2.21ZM526.14,331.1c.58-3,1.13-5.82,1.69-8.67l-.9-.38-5.13,7.89Zm-2.43,2.08-1.09-1.09-9.22,9.48,1.24,1.25ZM679.55,493.43l.48-1.18c-4.27-1-6.71-6.64-13.14-4.24ZM355.12,1035.36l-2.65.52,1,5.81c.94-.32,2.7-.72,2.68-1A39.92,39.92,0,0,0,355.12,1035.36Zm1.62,15.27,2.86.35,1-5.82a20.11,20.11,0,0,0-3.08-.27A52.19,52.19,0,0,0,356.74,1050.63Z"/>
        <path d="M233,1104.61c-.8.06-2.25.32-2.31.13-1.91-6.06-3.84-12.12-5.42-18.28a78.33,78.33,0,0,1-2.09-12.07c-.25-2.77.29-5.61.47-8.26-13.78-11.2-15.14-29.06-24-42.52-7.67,9.76-13.53,21.35-11.13,35.36-8.44,4-14.62,9.45-18.66,17.3-2.36,4.57-5.86,8.75-7.27,13.56-2.08,7.07-4,14.6-3.75,21.84.69,16.91,2.55,33.78,4.39,50.61.5,4.61,2.64,9,4,13.56l-1.52.52c-1.42-4.4-3.3-8.72-4.2-13.23a273.1,273.1,0,0,1-4.26-78,24.22,24.22,0,0,1,8.3-16.51c3.64-3.16,7.5-6.17,10.62-9.8,1.89-2.21,2.64-5.43,3.76-8.25,2.1-5.27,4.09-10.58,6.13-15.88a1.39,1.39,0,0,1,0,.49c-3.12,14.34-7.69,27.45-20.64,36.74-5.53,4-6.86,11.89-6.08,20.39,1.25-2.7,1.9-4.38,2.76-5.95,5.28-9.59,10-19.73,20.11-25.34,3.18-1.77,4.34-3.63,4.09-6.93-.72-9.72,2.4-18.22,8.09-26,2.85-3.89,5.25-8.11,7.86-12.18a18.81,18.81,0,0,0-6.55,5.46c-3.4,4.42-6.59,9-9.87,13.51l15-23.58-8.71-10.62-6.05,1.13.16.15c-.3-3.26-.6-6.53-.92-10-3.32,1.25-7.3,2.65-9-1.52-1-2.53.15-6,.39-9.74a8.1,8.1,0,0,0-8.5,4c-.91,1.66.91,4.82,1.45,7.15-14.17,10.53-9.73,24.52-5.09,38.55l-1.29.35c-1.16-2.57-2.66-5-3.42-7.73-3.21-11.29-3.58-22.08,6.36-30.71a2.89,2.89,0,0,0,1-2.21c-1.3-7,1.19-10.31,8.38-10.78.82-.05,1.65,0,2.45,0,1.73-7.62,7.71-12.18,12.68-10.39l-6.24,2.53c.71,1.14,1.25,3.06,2.16,3.25,1.64.35,3.49-.35,4.63-.51-1.2,7.56-2.58,16.28-4,25l2,.57a16.5,16.5,0,0,0,1.78-3.79c.39-1.94.12-4,.48-6,.75-4.19,2.58-7.84,7.3-8.37a11,11,0,0,1,11.15,5.08c2.73,4.14,1.9,7.9-.75,11.67.27-1.77.68-3.53.78-5.3.24-4.36-3.14-8-7.92-8.68-4.44-.64-6.76,1.2-7.81,6.31-1,4.7-.07,8.86,3.4,12.43a60.28,60.28,0,0,1,5.69,7c1.64,2.29,2.82,4.11,0,7.28-1.6,1.83-1,6.74.21,9.64a246.7,246.7,0,0,0,11.59,24.77c2.51,4.68,6.23,8.71,10.12,14-4.23,8.64,2.25,18.06,2.23,29.47l4.06-5.64c-1,5.32-2.58,10.45,1.46,15.14Zm-46-122-6.52-2.1a84.24,84.24,0,0,0-2.66,8.88,7.58,7.58,0,0,0,4.34,1.53C186.66,990.16,187.81,987,187,982.62Zm-7.11-5.28c5.45,4.3,6.44,4.32,9.26.14C186.13,976.5,183.45,973.13,179.89,977.34Z"/>
        <path d="M185,1013.77a115.31,115.31,0,0,1-11.41,4.36c-1.16.32-3.05-1-4.24-2.06-1.88-1.6-2.79-4.6-6.27-3.63-.26.07-1.76-2.1-1.56-3,.62-2.53,1.25-5.39,2.87-7.27,2.93-3.39,6.16-7.18,10.09-8.77,2.1-.85,6.07,2.31,8.88,4.14,1.35.88,2,2.89,2.9,4.39l-.16-.15c3.26,5,2.92,8.34-1.25,12.11,4.06-8.6,3.92-8.82-6.74-11.86-1.2,4.82-2.4,9.67-3.61,14.51.24-5.22.48-10.43.71-15.6-9.18-1-9.5-.77-11.6,9.51l4.63-.59-.81,1.52q3.54,2.58,7.07,5.13c1.73-.24,4.81-.14,5-.78C180.45,1012,183.21,1014.32,185,1013.77Z"/>
        <path d="M881.19,143.14c3.94-6.79,7.54-13.81,11.92-20.31,3.5-5.2,7.82-9.89,12-14.6a65,65,0,0,1,8.61-8.22c7.12-5.51,8.69-13.78,11.25-21.58.15-.43-.49-1.12-.93-2l-11.92,7.24c2-1.85,4-3.81,6.17-5.52,2.65-2.1,5.46-4,8.56-6.24,2,3.1,1.83,6.57.23,9.88a77.74,77.74,0,0,1-16,22.82c-8.85,8.57-17.78,17.76-23,29.58C886.59,137.51,883.53,140.17,881.19,143.14Z"/>
        <path d="M233.18,1104.78l.89-14.39,5.7,2.84c-.64-4.51-1.19-8.45-2-13.92-.7,2.77-1,4.09-1.47,5.86-2-5.42-1.38-6.53,3.69-7.23l.42,5.24c.83-1.76,1.33-2.74,1.76-3.76s.66-1.86,1.25-3.53l1.12,3.71,1.9-3.38,1.25,2.58,3.45-5c.41,6.13-3.44,10.49-8.6,10.24.77,4.39.59,8.27-4,10.87-1,.55-1.19,2.87-1.24,4.39,0,1.76.46,3.54.86,6.21l-2-2.15-3.22,1.22Z"/>
        <path d="M905.08,120.43c2.84-8.52,7.07-15.94,14.55-21.48,2.74-2,4.48-5.65,6.14-8.82,3.06-5.86,5.77-11.91,8.56-17.91,1.66-3.56,5-6.93,1.34-11.26-.42-.5.5-2.13.79-3.23l1.56-.3c.58,2.62,2,5.39,1.55,7.82-.57,3.14-2.56,6-4,9-2.22,4.44-5.06,8.66-6.68,13.31-2.11,6-5.6,10.58-10.36,14.86-4.18,3.77-7,9-10.4,13.69-1,1.43-1.83,3.05-2.73,4.58Z"/>
        <path d="M853.05,723.94c2.88,7.66,3.29,15.56-.43,22.91-1.17,2.33-5.41,3.1-8.25,4.58-1.15-2.56-3-5-3.32-7.68C840.23,736.2,845.2,724.6,853.05,723.94Zm-9.5,24.6c9.09-2.27,12.07-11.06,7.91-22.6C843.52,729.49,840,739.27,843.55,748.54Z"/>
        <path d="M538.08,153.22l-.83-1.53,2.44-2.62,6.06-5.42,1.88.79c-.75,3.25-.74,7-2.45,9.64C543.25,157.07,540.49,153.74,538.08,153.22Z"/>
        <path d="M912.32,83.48,897.17,99.79C901.84,94,905,86.84,912.32,83.48Z"/>
        <path d="M255.05,1075.88l1.8-13C259.19,1068.19,258.66,1072.5,255.05,1075.88Z"/>
        <path d="M768.19,506.51c1.61,3.77,3.09,7.61,4.86,11.31,11.17,23.44,28.12,40,54.88,43.19,7.93,1,16.21-.94,24.33-1.55a40.77,40.77,0,0,0,10.49-1.81l-11.56-5c-4.12-3-8.19-6.06-12.37-9-7.32-5.1-13.24-11.4-17-19.65.7.88,1.42,1.75,2.09,2.66,11.32,15.55,27.13,24.73,44.78,31.08,3.18,1.15,6.9.68,10.32,1.25,8.48,1.4,17.31,1.9,25.33,4.69,19.9,6.92,30,31.94,21.19,51.34a8.31,8.31,0,0,1,.17-1.79c5.94-15.08.7-27.65-9-39.06C907.92,563.83,895.63,561,883,560.86a358.67,358.67,0,0,0-39.85,2c-32.73,3.18-61.85-15.54-72-46.87C770.11,512.84,769.17,509.67,768.19,506.51Z"/>
        <path d="M896.31,633.71c-8.74,1.18-19.58-.52-30-3.92-30-9.73-51.93-29.86-68.77-55.74-10.33-15.88-19.7-32.4-29.18-48.81-2.57-4.45-4-9.57-5-14.86a70.79,70.79,0,0,1,4,6c5.86,11.14,11.23,22.55,17.5,33.43,6.63,11.52,13.32,23.16,21.36,33.68,15.51,20.3,34.52,36.74,59.41,44.42C876.11,631.21,887.47,632.11,896.31,633.71Z"/>
        <path d="M923.94,657c-33.37,2.73-64.45-3.77-92.49-22.55C859.9,651.59,890.9,658.43,923.94,657Z"/>
        <path d="M697.25,539.24a15.19,15.19,0,0,1-1.15,2c-8.33,10.55-16.64,21.11-25.06,31.59-2.15,2.68-4.78,4.7-7.44,3.8,3-2.94,6.61-6,9.6-9.53,7.88-9.4,15.49-19,23.21-28.57Z"/>
        <path d="M742.31,421.15c-2.07-16.88,32.89-45,52.28-42.22C769,382.63,753.68,399.27,742.31,421.15Z"/>
        <path d="M855.26,379c-8.63-4.52-17.65-5.26-27.06-3-6.09,1.47-12.25,2.68-19.39,4.23,1.19-1.31,1.63-2.26,2.31-2.47,13.26-4,26.57-8.1,40.31-2,1.42.63,2.46,2.16,3.71,3.28Z"/>
        <path d="M668,393.3c-1.54-.93-3.58-3.21-5.32-3-4.63.57-4.82,4.63-4.7,8.47-.79-6.36.87-9.57,5-10S667.56,391.22,668,393.3Z"/>
        <path d="M622,231.25c-1.93,6.76-7,10.5-13,13.29a67,67,0,0,0-12.42,7l10.78-4.26.75.92c-3,3.38-6.69,6.37-8.92,10.21-3.41,5.88-8.72,8.19-14.68,9.62a29.48,29.48,0,0,1-8.14.28c-.6,0-1.74-1.44-1.61-2,.4-1.63.9-3.63,2.09-4.56,1.84-1.45,4.29-2.13,6.26-3.78l-10.26.89-1-2c4.7-4,8.93-8.79,14.21-11.76,11.26-6.32,22.82-12.32,36-13.77Zm-20.93,21.92-.74-1.09-9.17,4.28,2.6,4.94Zm-6-3.51-.59-1.51-11.62,3,2.86.9-2.39,2.13.55.89Zm-4.46-3.49c4.35,1.41,9.31,2.69,13.4-2Z"/>
        <path d="M595.83,429c-10.05-10.32-20.46-20.33-30.08-31-15.71-17.5-22.42-38.52-22.36-61.87,0-6.16-.27-12.34.09-18.48a37,37,0,0,1,2.85-11.42c-.36,10.29-.92,20.57-1,30.85-.2,18.87,6.16,36.19,15,52.25,4.45,8.07,12.47,14.17,18.78,21.24,5.55,6.21,11,12.54,16.44,18.82Z"/>
        <path d="M559,266.16c-1.25,5.26-2.22,10.6-3.81,15.75-2.66,8.62,1.72,14.74,10.73,14.74,5,0,10,.39,14.94.63a2,2,0,0,1,1.73,1.17c-6.42,0-12.84.15-19.26-.06a11.56,11.56,0,0,0-9,3.17c-1.34,1.23-5.06,2.08-5.81,1.3-1.6-1.68-2.32-4.48-2.7-6.93-.19-1.21.89-2.9,1.84-4,6.11-6.93,7.77-15.52,9.28-24.2a13.68,13.68,0,0,1,.55-1.83Zm-7.78,23.15c-1.23,2.06-3,3.92-3.39,6-.33,1.76.73,3.93,1.66,5.66.17.31,2.87-.38,4.11-1.1a31.79,31.79,0,0,0,4.23-3.53C555.55,294,553.65,291.94,551.19,289.31Z"/>
        <path d="M555.51,320.35c5.58,21.45,3.77,44.78,16.51,64.42C556.48,365.84,558.57,342.44,555.51,320.35Z"/>
        <path d="M540.36,319.35c3.32,22.83-4.44,46.91,7.9,69.15-4.47-4.38-7-8.6-7.63-18-1.16-17-1.36-34.11-2-51.18Z"/>
        <path d="M639.29,459.55c-2.2.29-4.74,1.43-6.55.72-8.32-3.26-16.44-7-24.6-10.65-.47-.21-.66-1-1-1.58a34.15,34.15,0,0,0,4.84,2.5C621.07,453.62,630.19,456.56,639.29,459.55Z"/>
        <path d="M600.46,418.1,587,406.23l.07-.09q6.75,5.88,13.48,11.79C600.58,418,600.36,418.39,600.46,418.1Z"/>
        <path d="M577.32,282.7,585,294l-1,.75-7.94-11.16Z"/>
        <path d="M713.19,528c6.37,12.36,7.63,26,9.94,39.39a6.06,6.06,0,0,0,2,3.83c.12-1.93.36-3.86.34-5.8-.13-15.67-4.68-30.09-12.42-43.6a36.5,36.5,0,0,1-1.86-4.51,89.19,89.19,0,0,1,15.75,45.48l1.45-.11V550.25c2.51,11.6-.9,20.79-5.61,29.86-2.44,4.71-4,9.87-6.84,14.57.77-2.78,1.52-5.58,2.33-8.36.27-1,1-1.87,1-2.79-.09-2.44.25-4.37,2.67-5.79.73-.43.84-2.64.59-3.9-2.88-14.14-5.9-28.25-8.85-42.37C713.36,530.35,713.32,529.18,713.19,528Z"/>
        <path d="M703.78,505.66c-.32-.08-.82-.05-.93-.24Q697,495.25,691.18,485Z"/>
        <path d="M624.71,460.89c-23.58-1.27-41.57-15.4-56-34,8.14,7,16.12,15.88,25.89,21.78S615.81,457.41,624.71,460.89Z"/>
        <path d="M809.34,1207.63l-2.06,3.13c-.74-.85-2-1.62-2.13-2.55-.73-5.41-2.18-11-1.49-16.26.8-6.2,3.54-12.15,5.44-18.2l1.76.54a7.35,7.35,0,0,1-.68,2.2c-6,8.83-5,18.64-3.85,28.4C806.45,1205.91,808.3,1206.72,809.34,1207.63Z"/>
        <path d="M774.36,1206l3.74-5.23c-2-1.56-4.86-2.67-5.28-4.38-1-4.16,1.66-7.14,5.5-9-1.16,1.4-2.81,2.63-3.35,4.23-.62,1.84-.25,4-.31,6a39.92,39.92,0,0,0,6-.83c1-.26,1.69-1.4,3.32-1.46l-8.53,11.45Z"/>
        <path d="M797.3,1194c-1.36-2.57-2.72-4-2.43-4.84.55-1.61,2.06-2.89,3.17-4.3.82.78,2.45,1.76,2.31,2.3C799.88,1189.05,798.8,1190.8,797.3,1194Z"/>
        <path d="M505.24,375c-5,6.27-5.23,13.94-6.1,21.37-.46,4-2.86,6.06-6,7.77,5.45-5.23,5.18-12.26,6.47-19C500.31,381.58,503.29,378.4,505.24,375Z"/>
        <path d="M492.76,404.55l-10.59,22.63C483.38,418.56,485.74,410.47,492.76,404.55Z"/>
        <path d="M738.51,639.22c-.51,7.54-6,13.65-12.11,13.36-5.34-.26-8.6-3.81-8.27-9,.47-7.53,5.62-12,13.29-11.45C736.11,632.42,738.79,635.12,738.51,639.22Zm-2,.55c.71-3.8-1.84-4.94-4.89-5.16-6.56-.46-12.12,3.89-12.32,9.38-.14,3.66,2.92,6.58,7.07,6.72C731.51,650.9,736.16,645.93,736.49,639.77Z"/>
        <path d="M302.64,1196.59l-6.1,2.62c.48-2.9.19-6,1.21-6.48,3.51-1.8,3.24,2.49,4.89,3.87Z"/>
        <path d="M353.92,1181.25c-1.68-2.75-3.09-4.29-3.48-6-.15-.68,2-1.87,3.08-2.83,1.16,1.38,2.78,2.62,3.31,4.21C357.11,1177.42,355.47,1178.89,353.92,1181.25Z"/>
        <path d="M811.55,1219.28c.38-.54.74-1.09,1.14-1.62,1.95-2.58,4.86-3.19,6.76-1,.84,1-.61,4.4-1.68,6.36-.45.81-3.19,1.39-3.87.83-1.12-.92-1.41-2.85-2-4.34l3.84,3.45q1.81-2.1,3.61-4.21c-.36-.51-.73-1-1.09-1.54Z"/>
        <path d="M804.55,1264c-3.15,2.5-4.81,4.6-6.87,5.12-1,.27-3.82-2.16-4-3.63-.41-2.86.88-6,4.5-5.67C799.86,1259.93,801.44,1261.86,804.55,1264Zm-2.6-.4c-1.5-1.2-3-2.95-3.48-2.7-1.37.67-2.34,2.19-3.46,3.37l3.47,3.3C799.49,1266.4,800.5,1265.25,802,1263.58Z"/>
        <path d="M754.2,457.55,753,444.44l1.53-.21,1.68,13Z"/>
    </g>
</svg>